<svg width="128" height="128" viewBox="0 0 128 128" fill="none" xmlns="http://www.w3.org/2000/svg">
<g clip-path="url(#clip0_235_2822)">
<rect width="128" height="128" rx="16" fill="#37FF6C"/>
<path fill-rule="evenodd" clip-rule="evenodd" d="M-84.8659 104.742C-85.8736 105.074 -86.1672 104.927 -86.8031 104.273C-86.4998 103.843 -85.404 103.062 -84.954 102.974C-84.592 103.57 -84.5137 104.039 -84.8659 104.732V104.742ZM-82.3808 104.566C-82.8602 103.98 -82.7134 102.886 -82.6254 102.134L-80.7762 100.982C-78.5748 102.916 -80.5708 103.716 -81.1284 104.146C-81.647 104.537 -81.7253 104.781 -82.371 104.566H-82.3808ZM-78.1346 102.574L-78.5748 100.064C-77.3127 99.0875 -76.305 98.0719 -74.7102 98.1207C-74.6124 98.9605 -74.1819 101.558 -74.6613 102.3C-75.1211 102.994 -77.528 102.974 -78.1346 102.584V102.574ZM-70.5325 95.1616C-69.6323 95.357 -67.8615 94.7905 -67.3527 97.8668C-66.8733 100.806 -67.7245 100.289 -69.9161 101.158C-71.5989 101.832 -72.1272 99.4586 -72.4403 98.2672C-72.6654 97.398 -73.2426 96.3042 -71.5206 95.3667C-70.8162 94.9858 -70.963 95.064 -70.5325 95.1616ZM38.4701 107.76C37.0808 107.828 36.4351 106.275 36.0633 105.045C35.4861 103.14 36.8264 103.55 36.0046 100.972C35.6328 99.8199 35.3589 97.4761 35.7111 96.3238C35.8774 95.7671 37.0613 92.6323 37.208 92.5835C38.9202 92.0073 38.9496 93.8433 39.7518 95.1421C40.4074 96.2066 40.1823 97.8082 40.3976 99.3414C40.7791 102.095 40.6128 105.816 38.4701 107.75V107.76ZM-67.0592 93.9507C-67.0592 95.103 -66.6287 95.2398 -66.1395 96.148C-65.2394 97.8179 -60.0539 98.5211 -60.4061 96.0601C-60.4452 95.8159 -61.1301 94.7222 -61.316 93.9214C-61.5117 93.0718 -61.9813 92.4467 -62.7738 92.2514C-64.0849 91.9292 -66.2275 93.2182 -67.0592 93.9409V93.9507ZM62.5484 108.062C62.3723 107.652 61.7461 99.1852 61.5113 97.6617C61.2471 95.9429 59.9556 94.6245 60.8166 93.5405C64.4758 88.9213 67.0979 100.269 65.7575 102.808C65.0237 104.185 67.4305 104.4 65.8749 106.529C65.1411 107.545 63.8888 109.029 62.5484 108.053V108.062ZM-12.279 91.8803C-10.0777 92.7495 -10.3222 98.9898 -9.69607 101.08C-9.41233 102.037 -8.80574 105.25 -8.8938 106.099C-8.94272 106.588 -11.8975 108.99 -11.9855 109.01C-14.2945 109.517 -13.9423 101.373 -14.2456 99.5563C-14.5587 97.6519 -14.5391 96.4996 -15.0283 94.439C-15.5469 92.2612 -14.275 91.0991 -12.2888 91.8901L-12.279 91.8803ZM-33.2166 92.3784L-31.0739 91.3334C-30.8783 91.7241 -30.6043 97.3882 -30.4184 98.7457C-30.1934 100.494 -29.5183 104.283 -30.7609 105.767L-35.2125 104.517C-35.9268 102.066 -36.2398 102.613 -34.8701 100.64C-34.2244 99.7125 -34.6451 96.9878 -35.0364 95.9038C-35.2027 95.4351 -36.3377 91.7631 -36.3181 91.5678C-36.2398 90.6791 -35.4376 90.4936 -34.4983 90.6694C-33.3536 90.8842 -33.7547 91.4995 -33.2166 92.3686V92.3784ZM-57.1774 87.0365C-56.0523 87.7591 -50.8472 96.3042 -57.3829 94.3315C-63.3804 92.5249 -59.0559 85.8255 -57.1774 87.0365ZM-52.3246 81.675C-54.9173 80.8645 -54.9858 84.8685 -54.3303 86.4408C-52.8236 90.0248 -53.7922 88.8822 -50.0449 90.142C-45.9553 91.519 -48.773 86.7142 -48.8611 86.1673C-49.1937 83.9407 -50.1526 82.3587 -52.3344 81.675H-52.3246ZM74.2793 78.0031C76.4122 79.6047 79.4061 77.8761 81.6564 76.9777C83.5642 76.2159 88.4464 76.382 90.1879 77.3488C93.0057 78.9113 92.8198 80.386 96.3029 81.4504C98.1716 82.0168 101.371 84.8099 100.647 86.763C100.608 86.7728 96.8606 86.3138 95.9115 86.3333C93.6612 86.3919 93.1524 86.8119 90.8337 86.0404C89.6596 85.6497 81.2161 85.5423 79.6409 85.6888C77.5275 85.8841 76.9014 86.5873 74.8467 85.7376C72.4986 84.761 71.1778 85.972 70.082 85.4935C68.0274 84.5853 69.4949 77.6808 69.5439 75.8058C69.583 74.419 69.6319 71.753 70.0135 70.542C70.5907 68.7256 68.8003 69.5361 70.0135 66.245C71.4811 62.2801 74.6706 65.6786 76.1871 67.6123C76.3926 67.8759 78.8484 69.3701 79.5822 69.9365C80.7073 70.7959 81.9401 73.2081 80.1301 73.296C78.7407 73.3643 77.146 72.0069 75.7469 73.6964C74.788 74.8585 74.1325 76.5187 74.2597 78.0129L74.2793 78.0031ZM88.2801 42.7485C90.8239 43.7348 86.5874 48.5884 85.7852 49.6041C84.7481 50.9029 82.126 55.6784 80.7073 54.6628C79.0049 53.4421 82.7619 49.4771 83.5544 48.2369C84.1219 47.3384 87.6735 42.5141 88.2899 42.7582L88.2801 42.7485ZM-37.5117 43.0024C-37.3161 42.7485 -36.416 41.8891 -36.1029 41.6352C-35.0658 40.766 -35.4963 40.7563 -34.1461 41.0492C-33.9895 43.061 -35.2321 43.1977 -35.9268 44.7505C-36.7877 46.6646 -37.4041 46.6646 -39.2729 47.0552L-39.9871 46.2935C-39.6936 45.7759 -37.9814 43.6274 -37.502 42.9926L-37.5117 43.0024ZM12.3471 29.6037C14.2354 29.4084 14.3919 29.799 14.2941 31.635C14.2256 32.8459 14.3919 34.5061 14.1767 35.5804C13.756 37.6605 12.9928 39.7797 12.5917 42.143C11.0752 51.2447 11.1339 55.4147 11.5644 64.2235C11.7405 67.7783 10.4197 67.4853 11.7894 70.8447C12.7287 73.1495 10.6251 75.7374 11.5742 77.7492C12.2884 79.2531 13.3255 83.2571 10.6056 83.4231C6.75069 83.6673 8.55093 76.421 8.06174 74.4093C7.68016 72.8467 7.0442 72.8956 8.04216 71.3428C8.62919 70.4248 7.86605 66.8212 8.10086 64.6435C8.39438 61.8407 7.69974 59.7996 8.08131 57.2019C8.65856 53.2858 7.29858 44.6821 8.61941 41.811C9.8424 39.1449 8.84443 29.9748 12.3471 29.6037ZM79.1908 37.3187C78.8679 37.7874 77.2634 40.3461 77.0286 40.5316C75.8447 39.682 77.0677 37.5335 77.4493 36.4495C77.9385 35.0433 78.6136 33.7639 80.3062 33.7639C80.9813 35.2288 80.0909 35.9905 79.1908 37.3187ZM46.943 39.2426L48.1758 37.1136C46.943 36.5081 46.493 36.0491 44.2916 36.1273C42.1293 36.2054 42.6381 35.5022 41.2879 34.8284C40.016 35.0335 39.0865 36.4398 37.5113 35.2874C37.2276 34.5354 38.3038 33.3538 37.208 32.8069C36.1807 32.2991 35.5154 33.1487 34.9773 33.8421C33.8032 35.346 30.6136 33.9983 31.6997 37.4163L36.4057 37.6019C36.6895 37.9339 36.5721 38.9691 36.5916 39.4379C34.2239 40.2973 33.813 37.8753 32.2965 39.4867C31.3572 40.473 31.8073 42.4164 32.9618 43.2954C33.676 43.2075 37.7755 41.391 37.6776 43.6079C37.5896 45.6196 34.1163 44.477 32.7466 44.9556C32.0421 45.8149 32.6781 46.7329 31.7975 47.8169C31.1224 48.6373 30.4082 48.8717 30.555 50.1705C30.8485 52.6217 34.0967 51.8893 34.7523 53.276C35.1827 55.6296 31.2301 54.2819 29.4494 55.1706C28.6177 57.6609 30.8093 57.8171 32.4041 58.4031C34.7816 59.2723 35.5252 57.1628 37.2961 58.7254C38.0299 59.3699 37.8831 60.3367 37.1102 60.7567C36.2003 61.2547 35.5447 60.5613 34.6544 60.5125C33.4119 60.4441 33.9108 61.3035 32.5704 60.5125C31.7779 60.0437 30.8778 59.8582 29.9875 60.2098C28.4905 61.7918 30.7995 62.6805 31.7388 63.5985C30.5158 66.0693 30.3984 63.7743 28.5884 65.3857C27.3752 68.833 32.453 67.3974 33.6173 68.4424L33.7934 70.0537C33.3434 70.4932 29.8505 70.3174 29.0287 70.3369V70.669C28.7547 72.9737 30.555 73.9893 30.643 74.6632C30.7898 75.8058 29.5863 75.1417 30.2223 76.4503C30.6039 77.2218 30.7702 76.7726 31.9051 78.0031L29.8701 79.8C29.782 81.0891 32.0128 82.7883 33.1575 83.4134C34.4587 83.1887 34.674 81.7922 36.0926 82.3684C37.1297 82.7883 36.6503 83.9114 38.1962 84.4485L38.4995 84.6536L40.29 82.134C43.3523 82.4368 42.8533 88.9799 46.3853 85.9134C46.9724 84.1653 45.0254 83.5305 46.2679 81.9875C49.0368 81.3039 48.6748 88.8627 51.9328 86.2552C52.559 84.3899 51.111 83.3352 51.3164 82.8079C52.0502 80.9719 53.3319 83.5598 53.6156 84.1067C56.6389 89.8881 56.8346 83.843 57.4216 83.4231C58.5761 82.9739 58.3021 84.5852 58.6837 85.1126C60.0632 85.7083 61.0221 85.1126 62.0592 84.0774C62.1864 82.7786 60.0339 81.5188 61.658 80.9524C62.7245 80.5813 64.5345 82.4661 64.5345 79.6242C61.4721 78.7941 60.122 80.2785 57.6271 76.7433C59.3588 73.6964 61.296 80.9426 64.4758 76.9874C64.965 73.8331 59.4566 73.2569 60.3078 70.3858C63.2919 68.2763 62.744 73.9112 64.9161 73.8038C66.3445 70.6006 64.2116 68.1201 64.0355 66.1083C63.7714 63.0614 58.8598 62.7294 61.8928 60.4637L64.0551 62.8856C65.5814 62.1727 63.8105 56.2351 63.3996 54.7995C62.9789 53.3151 62.1766 52.7682 61.4036 51.6061C60.7775 50.6588 60.6307 48.6568 59.9948 47.8755L57.4118 47.7291L56.8345 46.0786C57.2259 45.7661 58.3902 45.6099 58.9283 45.4927C59.2218 43.7446 56.7563 43.7544 55.6605 43.3344C52.7057 42.2016 52.9992 44.4184 51.6686 43.2465C51.4827 41.5473 52.7938 42.0453 53.5569 41.1762C53.1949 37.4749 50.0347 41.2152 49.2031 41.9184L46.9528 39.2621L46.943 39.2426ZM-16.5253 51.8112C-15.586 53.2956 -16.2513 53.6276 -16.6133 55.0729C-16.897 56.2253 -16.3002 57.4851 -16.2415 58.7156C-16.1632 60.4637 -18.3255 64.6435 -18.3157 65.0634C-18.2864 66.206 -16.9851 66.2743 -17.2982 68.2959C-17.5819 70.0928 -18.394 69.8291 -19.0495 70.9717C-20.8791 74.1261 -13.8738 82.1926 -24.5774 80.9621C-27.2973 80.6496 -29.5476 81.9973 -31.7295 81.0305C-37.2671 78.5597 -45.0845 83.1106 -28.7454 83.0716C-25.5069 83.0716 -21.3683 83.3059 -18.1689 83.7649C-18.6875 84.5364 -20.8791 86.3529 -21.7988 86.304C-22.5326 86.265 -23.1196 85.6595 -24.0589 85.4642C-25.2916 85.22 -25.6145 85.679 -26.8375 85.6595C-28.9802 85.6204 -30.1542 85.845 -32.3654 85.4544C-38.1868 84.429 -43.1081 87.1146 -45.7205 80.6301C-46.4445 78.8332 -46.1314 76.1085 -46.4151 75.63C-47.2663 74.214 -48.8317 74.1358 -46.3662 71.7237L-44.0474 71.4502C-43.0494 69.2236 -46.1412 69.3701 -46.6695 68.9404C-47.824 67.4951 -46.3466 65.8349 -44.879 65.4052C-43.6756 65.0536 -41.5036 67.0068 -40.897 64.5458C-41.0927 61.7137 -45.74 63.7841 -44.5953 60.3367L-42.8929 59.8484C-42.6679 56.5085 -43.431 57.2507 -39.8892 57.0261C-38.9304 54.6335 -41.9243 55.7859 -43.7735 53.2174L-41.2394 51.401L-41.3275 49.2818C-38.9989 47.2798 -38.3434 50.4635 -35.3593 47.397C-34.4298 46.44 -33.608 43.8325 -32.0327 42.0258L-29.6944 42.7973C-29.2248 42.4457 -29.1759 41.6352 -29.0095 41.0883C-30.5945 39.9555 -32.2969 41.1859 -32.5807 38.9203C-30.164 35.0725 -25.9178 40.0141 -24.1078 38.2074C-24.3719 36.6058 -27.2973 36.6253 -25.9961 35.3265C-24.8611 34.1936 -22.6109 34.9358 -21.2802 34.4475C-19.9398 33.9592 -19.5583 32.6409 -17.6015 32.5041C-14.4315 32.2698 -17.1025 34.8284 -17.1416 35.2288C-15.7132 36.9085 -14.862 35.3753 -14.5293 39.6918C-14.2162 43.6567 -16.8481 42.0649 -17.9635 43.1684C-18.756 45.1118 -16.4763 45.1802 -15.8012 46.0591C-15.6838 47.3872 -17.533 50.1803 -16.5057 51.8112H-16.5253ZM24.3422 73.0128C24.4889 74.6729 24.9683 74.546 25.3597 75.796C25.6728 76.7824 25.5749 78.3351 25.7021 79.4387C25.9272 81.4504 27.7372 85.0345 24.4302 84.556C21.0058 84.0579 21.6124 74.9855 21.4266 71.9385C21.182 67.9638 21.4266 61.6063 22.1114 57.6902C22.6691 54.4968 23.0213 54.4186 22.718 50.9127C22.5811 49.2916 22.493 49.1353 23.1192 47.6509C23.6867 46.2935 23.3736 45.395 23.4421 43.979C23.5497 41.7524 24.6455 39.5062 24.6063 37.4359C24.5672 35.6878 23.6671 31.01 27.0817 32.553C28.3829 33.1389 27.023 44.018 26.387 45.6978C25.076 49.1939 24.2443 55.2683 24.0682 59.0965C23.9704 61.2449 24.7531 63.1004 24.3128 66.1279C23.8628 69.2334 24.0584 69.917 24.3324 73.0128H24.3422ZM-9.77434 53.1881C-10.0581 51.4401 -9.53953 51.2057 -9.28514 49.731C-9.06011 48.4615 -9.73521 47.6021 -9.60801 46.2935C-9.50039 45.1899 -8.9525 44.2231 -8.68833 43.1782C-8.27741 41.5375 -9.23623 41.4203 -9.27536 40.1508C-9.29493 39.3597 -8.45352 38.266 -8.15022 37.3675C-7.44577 35.2581 -6.52609 32.8166 -7.42621 30.6486C-9.09926 30.5705 -11.1734 33.178 -11.2713 34.7796C-11.4278 37.4066 -10.7038 39.809 -11.3202 42.5239C-12.0344 45.6392 -12.2203 53.4909 -12.4258 57.1433C-12.5921 60.0828 -11.8975 61.9383 -12.6704 64.8778C-13.1889 66.8603 -12.2692 76.3331 -12.4551 80.1027C-12.5138 81.2942 -14.138 86.138 -10.5864 82.3196C-7.79799 79.3312 -9.72542 73.921 -9.55909 72.6026C-9.3732 71.1963 -9.06991 70.7666 -9.26559 69.1846C-9.40257 68.0713 -10.2929 66.7919 -10.1364 66.0497C-9.84284 64.6728 -8.78617 65.1024 -9.60801 63.3348C-10.3418 61.7821 -9.87218 58.53 -9.46126 56.821C-9.10904 55.3659 -9.5591 54.5651 -9.78413 53.1784L-9.77434 53.1881ZM-2.1429 70.8936C-2.31901 72.8858 -2.4462 76.3234 -2.27987 78.2863C-2.08419 80.6399 -1.25255 84.2532 -4.85303 83.2864C-6.89787 82.7395 -5.70423 78.9894 -5.99775 77.0167C-6.46737 73.921 -5.56726 59.8484 -5.88035 54.3796C-6.25214 47.9927 -5.92927 46.2154 -5.08785 40.0629C-4.74541 37.5335 -3.92356 36.3909 -3.20934 34.1448C-2.79841 32.8459 -3.09192 31.7033 -2.81797 30.5803C-2.50489 29.3205 -0.802491 29.1056 -0.1274 29.6135C1.12494 30.5705 -0.861202 34.7307 -0.978609 35.8636C-1.21342 38.3148 -1.62434 40.5609 -1.83958 42.7875C-2.10375 45.4341 -1.54608 47.3872 -2.25052 50.1705C-2.89626 52.7389 -2.23095 55.0143 -2.82777 57.5535C-4.1486 63.2079 -1.31126 61.5086 -2.13311 70.8936H-2.1429ZM20.2721 39.6234C19.959 41.6645 20.0862 41.0785 20.409 43.0317C20.9276 46.186 19.3328 46.7329 19.9003 50.151C20.2036 51.9869 19.548 51.9576 19.2252 53.4323C18.9317 54.7507 19.5774 55.7663 19.1958 57.1921C18.2957 60.5418 19.4502 61.3426 18.4718 63.9891C17.875 65.5907 18.2859 65.6298 18.5892 67.124C18.9121 68.7451 18.1392 68.9892 17.9044 70.2881C17.9044 70.3174 18.9023 76.4601 19.0001 77.1242C19.1665 78.3058 18.2076 82.759 17.3956 83.6575C14.9105 86.4212 15.1062 80.3078 15.0964 79.341C15.0768 76.7335 14.4604 75.4151 14.4604 72.417C14.4604 70.3955 14.4017 66.7333 14.6659 64.8095C14.842 63.4911 15.4584 63.1786 15.4877 61.4793C15.5073 60.1219 15.3312 58.7644 15.566 57.4167C15.8791 55.5905 16.2215 52.7096 16.4172 50.8053C16.6814 48.3052 17.2293 45.7368 17.4543 43.52C17.7869 40.2191 15.7617 30.0432 19.9688 30.4729C20.2623 31.6448 18.6871 33.1194 19.4209 36.7327C19.685 38.0414 20.4775 38.305 20.2721 39.6234ZM5.14614 70.708C4.82327 69.3701 4.1286 69.3799 4.14817 67.5341L4.67649 59.9656C5.07763 58.0027 4.41232 58.364 4.12859 56.8796C4.04054 56.4402 4.43191 42.436 4.49061 42.2211C4.99937 40.5023 7.52362 29.5256 5.75273 29.1056C2.80777 28.3927 2.09354 39.7797 2.11311 41.391C2.14246 46.3032 0.361793 60.366 1.34997 63.6376C1.60435 64.4774 0.93905 76.5968 1.44781 78.716C1.79025 80.1418 2.52403 80.3957 1.79024 81.9094C1.22277 83.0813 0.978183 83.7161 2.75886 83.804C6.3202 83.9798 5.81142 81.0207 5.62553 78.5304C5.49834 76.7921 5.48856 72.1241 5.1559 70.708H5.14614ZM69.7591 48.7252C70.7179 48.8326 74.2989 39.5746 74.5141 38.1878C74.9935 35.1409 73.203 36.2152 76.0795 32.8459C77.0872 31.6545 80.6193 30.092 79.0832 29.2717C77.87 28.6271 75.0718 31.0686 74.201 31.8401C72.479 33.3538 72.1953 34.5843 71.5985 36.8597C71.2169 38.3148 67.9686 48.5396 69.7591 48.7349V48.7252ZM-77.7628 107.33C-76.4322 106.851 -75.6005 106.783 -74.221 106.187C-73.634 105.933 -73.0861 105.855 -72.4892 105.67C-71.8435 105.474 -71.3934 105.133 -70.7868 104.937C-70.1607 104.742 -69.5834 104.752 -68.9377 104.527C-68.243 104.283 -67.9202 104.029 -67.1374 103.902C-64.8676 103.541 -65.6894 103.951 -63.6055 102.935C-63.0184 102.652 -60.6311 101.783 -60.3376 101.529C-59.5843 100.894 -58.3808 100.064 -57.4122 99.7809C-56.4338 99.4879 -56.698 99.5758 -55.8859 99.0582C-55.2109 98.6383 -54.8097 98.775 -54.1444 98.3746L-49.9275 95.8355C-49.0274 95.4351 -45.5933 93.9116 -44.8693 93.7847C-44.1452 93.6675 -43.5093 93.6577 -42.7853 93.6186C-41.5623 93.5405 -42.0613 93.355 -41.2003 92.7885C-39.899 93.0034 -39.9382 93.9018 -39.7523 95.064C-39.5566 96.2847 -39.2435 97.1734 -39.0283 98.3258C-38.5782 100.777 -38.6663 102.652 -37.9422 105.201L-36.9051 111.949C-36.9051 113.219 -37.0226 114.596 -36.7877 115.816C-36.6214 116.695 -36.7388 116.5 -36.1126 117.047C-35.3886 117.682 -34.0874 119.547 -32.7372 117.144C-32.473 116.686 -32.4437 116.187 -32.2676 115.709C-31.7979 114.469 -31.0348 112.271 -29.3324 113.033C-28.2562 113.521 -28.4812 115.064 -28.3931 116.08C-28.3051 117.008 -27.855 118.189 -26.7299 118.131C-25.6439 118.082 -24.2937 118.033 -24.2741 116.607C-24.2545 115.728 -24.5872 114.195 -24.9492 113.326C-25.3797 112.262 -25.4482 111.148 -25.6439 110.035C-26.4951 105.211 -25.7221 100.191 -26.7886 95.4253C-27.1212 93.9604 -27.3756 94.1753 -26.4461 92.7983C-26.2309 92.4858 -24.7437 90.9721 -24.4404 90.8159C-23.9415 90.5619 -21.2313 90.5326 -20.6736 90.6987C-19.6561 91.0014 -19.7931 92.7007 -19.5876 93.5893C-19.0788 95.7183 -18.5701 97.8375 -18.1787 99.9762C-17.9733 101.08 -17.5819 101.949 -17.4058 103.179C-17.0047 105.972 -17.0536 104.566 -16.4959 106.256C-15.9382 107.945 -15.3903 111.207 -15.2436 112.965C-15.1359 114.273 -14.7544 114.976 -14.4804 116.187C-14.3043 116.988 -14.0988 118.873 -12.7976 118.521C-11.5355 118.18 -10.6158 114.068 -9.20687 115.601L-5.64553 119C-4.33448 118.414 -4.15838 118.521 -3.96271 116.783C-3.80616 115.338 -3.85508 114.918 -4.29536 113.473C-5.22483 110.367 -4.53995 108.98 -4.86282 106.08C-4.99001 104.908 -5.08785 103.629 -5.22482 102.466C-5.3618 101.353 -5.64554 100.211 -5.80208 99.068C-6.16408 96.48 -5.94883 94.7026 -6.76089 92.0561C-5.38136 90.1713 -2.33857 90.1615 -0.293733 89.1264C1.21299 88.3646 1.92722 88.3939 3.53178 88.9115C4.80369 89.3119 5.73316 88.4232 7.4747 88.4037C9.07926 88.3939 15.3997 88.4721 16.5737 88.8627C19.6263 89.8588 21.994 88.1205 24.7042 89.5658C25.6826 90.0834 26.0935 91.3334 26.8566 92.0854C27.8839 93.1108 31.0637 93.5307 30.4375 97.8277C30.0658 100.396 31.1713 100.152 31.3866 101.578C31.866 104.791 31.4844 106.08 32.8639 109.625C33.4705 111.187 33.813 111.441 33.8424 113.316C33.9011 116.656 35.4567 118.131 36.8558 115.992C37.4233 115.123 37.5504 115.133 38.3429 114.498C38.793 114.762 39.1941 114.801 39.5953 115.182C40.4171 115.982 42.2859 117.838 43.3817 117.496C45.4656 115.865 44.3992 114.332 44.0274 112.144C43.8219 110.943 43.8807 109.879 43.8904 108.658C43.9002 106.822 42.9903 103.648 43.2349 102.3C43.4697 101.031 43.7535 100.513 43.4502 99.068C43.0588 97.232 42.3152 94.5366 43.2349 92.769C44.3992 92.3491 54.7212 91.558 55.9051 91.8315C57.0302 93.5405 56.3552 92.8667 56.678 94.6929C56.9422 96.2066 56.9128 96.773 56.8933 98.2769C56.8737 100.005 57.6466 99.9078 57.9891 101.343C58.1554 102.047 58.0771 102.447 58.2434 103.17C58.3902 103.795 58.5761 104.146 58.7815 104.703C59.1925 105.826 59.1631 106.89 59.4762 107.994C60.0045 109.879 60.0828 111.715 60.0241 113.687C59.9458 116.314 59.4077 115.982 61.7559 117.867C62.5386 117.369 62.6853 117.555 63.1941 116.666C63.9572 115.328 63.7811 116.275 64.8182 115.768C65.9042 116.881 66.1488 118.316 67.8415 118.531C70.6201 116.334 69.5145 112.828 68.7709 109.957C68.4676 108.775 68.7709 107.379 68.859 106.217C69.0547 103.765 69.0253 101.275 69.0449 98.7848C69.0449 97.9937 69.0155 97.7496 68.9079 97.0074C68.7905 96.148 68.996 95.9136 68.996 95.3179C68.996 94.2827 68.1154 93.394 68.6437 91.9877C69.2699 91.3432 71.9018 91.0405 72.9193 90.894C74.426 90.6694 76.7644 91.4311 77.459 91.1088C78.9462 90.4155 80.4627 90.7865 82.0771 90.9721C84.073 91.2065 86.4407 90.1908 89.6302 90.8744C90.8239 91.1284 90.9608 90.8354 92.0958 90.8159C94.17 90.7866 99.5903 91.6459 101.684 92.1635C103.563 92.6323 104.306 92.0561 105.989 91.353C107.877 90.5619 106.586 89.0092 106.351 87.681C106.048 86.0013 106.635 84.2825 106.038 82.9837C105.5 81.802 103.68 81.5871 102.76 80.8938C101.929 80.2688 100.011 79.5461 98.9837 79.1262C97.9955 78.7258 98.2499 78.4425 97.6922 77.8175C97.115 77.1632 96.3909 77.3878 95.6473 77.0949L92.0566 75.1417C90.7065 74.3604 90.2271 73.6964 89.19 72.6417C88.3192 71.753 86.6559 70.9424 86.8418 69.624L88.0061 68.8135C88.0159 68.2177 87.7126 67.3388 87.0962 67.2509C85.658 67.0458 86.3233 68.3349 85.8341 68.8721C84.9144 69.8779 83.8088 66.6845 83.3196 66.0595C82.5076 65.0145 80.0126 62.7684 78.819 62.075C77.7232 61.4403 77.9776 61.5672 77.8406 60.3563C78.956 59.8484 82.2923 59.0574 82.8891 58.6277C84.934 57.1433 87.1647 57.2312 87.5463 56.3523C87.7419 55.3952 87.4876 54.5456 87.9865 53.5006C88.2116 53.0221 88.3975 53.0417 88.6421 52.6022C89.2878 51.4791 89.6204 50.151 89.9335 48.8717C90.1683 47.9244 90.6967 47.0259 90.8435 46.313C91.0391 45.3853 90.863 44.4282 91.2544 43.4321C91.7044 42.2895 91.7338 41.8891 92.0566 40.7758C92.4186 39.5062 93.9547 36.9964 93.7688 35.9515C89.5617 34.5745 82.5076 44.7016 80.3453 47.6119C79.4158 48.8619 78.2711 49.7603 77.6156 51.1666C76.8622 52.7877 76.4611 54.2233 75.1794 55.5808C72.3616 58.5789 71.1876 54.9753 73.3694 51.4889C74.9544 48.9595 77.7036 46.7427 79.0245 44.2231C80.9226 40.6098 84.4643 35.2288 84.9829 31.2737C85.3938 28.0998 87.1549 22.9043 87.2919 21.0488C87.4093 19.457 82.9967 23.1387 80.629 23.9297C78.8679 24.5157 77.7526 24.4669 75.9328 25.3556C66.3445 30.0432 67.8513 34.6429 65.7379 41.0688C64.1725 45.8443 62.3429 42.7192 60.2198 40.2777C57.3433 36.9671 48.7237 31.4299 44.497 30.4143C41.2781 29.633 37.7266 28.6564 34.6642 27.4064C30.7898 25.8243 29.4004 25.7071 25.2227 25.9708C21.7103 26.1954 17.0825 25.8146 13.5505 25.3653C10.0674 24.9161 5.51792 24.3399 2.07399 24.9259C-3.06257 25.795 -3.65939 26.3126 -9.36341 26.4298C-13.8836 26.5177 -16.3296 27.5822 -20.5464 28.256C-25.3797 29.0275 -25.8591 29.0568 -30.0173 31.6057C-32.7568 33.2854 -35.193 34.6136 -37.5215 36.9183C-44.6834 44.018 -44.2724 42.1528 -48.0784 52.1627C-49.3307 55.4538 -50.2406 58.8035 -50.7592 62.2899C-51.6202 68.1396 -52.4909 68.247 -53.3421 72.3389C-54.1053 76.0304 -53.7433 78.3937 -57.5394 80.4445C-61.5606 82.6223 -61.5508 83.4231 -64.5447 86.4212C-66.8831 88.765 -69.74 89.5365 -72.4208 91.3725C-81.6568 97.7007 -77.5475 96.0796 -88.799 100.64C-92.7615 102.242 -93.9552 102.447 -96 106.431C-92.4289 109.791 -90.0612 109.361 -85.4334 108.853C-83.8875 108.687 -83.0461 108.199 -81.6568 107.955C-80.1109 107.681 -79.3673 107.935 -77.753 107.359L-77.7628 107.33ZM-65.5818 105.299C-66.4232 105.777 -67.2059 105.65 -68.0767 105.924C-69.016 106.217 -69.2214 106.568 -70.3661 106.754C-71.6967 106.969 -71.5696 107.398 -72.5577 107.681C-73.0763 107.838 -73.2915 107.74 -73.8199 107.984C-74.3384 108.228 -74.2014 108.375 -74.7298 108.629C-75.3168 108.902 -76.2071 109.107 -77.0094 109.469C-77.8313 109.84 -78.7314 109.732 -79.5924 110.006C-80.0816 110.162 -81.2654 110.943 -81.5883 111.305L-81.0697 111.92C-79.7783 111.666 -79.9544 111.724 -78.751 111.197C-77.7628 110.758 -77.2149 111.07 -76.2756 110.553C-74.2504 109.449 -75.1603 110.162 -73.9862 109.722C-72.9784 109.342 -73.3404 108.971 -71.7652 108.834C-70.2585 108.697 -70.5716 108.443 -69.4367 108.043C-68.3115 107.652 -68.3213 107.945 -67.1179 107.232C-66.1395 106.646 -65.435 106.929 -64.5545 106.685C-64.124 106.558 -63.5076 105.963 -63.3315 105.65C-63.0086 105.074 -63.3315 105.65 -63.2239 105.142C-63.987 104.498 -64.848 104.869 -65.6014 105.299H-65.5818ZM-44.4094 96.9488C-45.0747 96.2652 -45.74 96.5777 -46.5814 96.7535C-48.1469 97.0953 -50.0058 98.5797 -50.2308 98.6578C-51.1799 99.0094 -51.1505 98.5894 -52.217 99.273C-53.1465 99.8688 -53.4693 99.5367 -54.4379 99.8297C-55.4457 100.132 -54.8488 100.328 -56.2577 100.611C-57.7449 100.904 -57.1481 101.099 -58.0678 101.578C-58.7135 101.91 -59.5158 101.675 -59.9854 102.261C-59.4962 103.004 -58.7135 102.906 -57.784 102.73C-56.8154 102.554 -54.751 101.412 -54.0172 100.953C-53.3519 100.533 -52.667 100.757 -51.9039 100.289C-50.6418 99.5172 -51.2679 99.8199 -49.771 99.6539C-48.685 99.5367 -48.8415 99.107 -47.8729 98.775C-46.9239 98.4527 -44.6442 98.2183 -44.429 96.9585L-44.4094 96.9488ZM7.68017 20.7754C7.48449 21.3516 7.1714 21.4785 6.75069 21.9571C4.85261 21.5567 4.53952 21.2051 2.47511 21.8203C1.23256 22.1817 -0.548106 22.6114 -1.67326 21.752C-0.95903 20.0625 -2.29944 20.3164 2.63166 20.2578C4.13838 20.2383 6.67242 19.4277 7.68017 20.7852V20.7754ZM-32.5904 59.4676C-32.972 58.6863 -32.4632 58.5301 -33.0405 57.573C-33.3731 57.0066 -33.7939 56.6941 -34.1656 56.2351C-35.1049 56.7331 -35.7115 56.2351 -35.9952 58.0027C-36.3083 59.8777 -35.506 62.3094 -32.5904 59.4578V59.4676ZM-36.0833 67.2998C-35.8289 67.124 -35.6235 66.9677 -35.3886 66.7333C-34.3222 65.62 -34.4396 66.4208 -33.1383 65.8642C-30.4184 64.702 -32.0034 62.4071 -33.9015 63.7157C-34.3613 64.038 -34.0972 63.7743 -34.4298 64.2235C-35.9463 66.2548 -36.8073 65.0048 -37.0323 66.7822L-36.0735 67.29L-36.0833 67.2998ZM-59.4766 76.2648C-60.1224 76.1866 -60.1615 76.1964 -60.6214 75.7277C-58.6744 72.9249 -58.8505 71.2549 -57.3535 71.1182C-56.1795 72.9053 -58.0873 74.8878 -59.4766 76.2648ZM-30.9957 28.7248C-31.6316 28.3634 -32.3263 28.1876 -33.0894 28.5392C-33.5688 28.7638 -33.5003 28.842 -33.8036 29.047C-35.8583 30.4631 -36.7192 30.4728 -36.729 32.1916C-35.5452 32.7385 -35.1636 30.9318 -33.8526 30.5607C-33.6275 30.4924 -31.4457 30.3654 -31.0055 28.7248H-30.9957ZM17.5521 93.0913C16.2606 95.0542 12.1808 92.3003 11.9851 92.0366C12.6602 91.2065 14.3626 91.5288 15.1746 91.6557C16.1726 91.812 17.2488 91.9878 17.5424 93.0913H17.5521ZM10.7719 94.0679L9.73478 94.5269C8.502 93.5112 8.83466 93.5698 7.20075 93.8335C5.99733 94.0288 5.20482 94.0874 4.32427 93.0913C5.10698 92.2026 5.80165 92.4663 6.80939 92.5639C7.81714 92.6616 8.72704 92.3784 9.91089 92.4077C10.5664 93.2768 10.312 93.2573 10.7719 94.0679ZM34.3315 49.3209L35.2023 48.4127C37.3548 48.774 36.4547 49.0377 38.0886 48.7056C39.3801 48.442 39.2431 48.442 39.5659 48.6666C40.016 48.9791 40.0747 49.5357 39.6246 49.8678C38.8615 50.4439 37.6092 49.8971 36.6308 50.1705C34.7327 50.7076 35.3589 50.8639 34.3413 49.3111L34.3315 49.3209ZM-21.427 42.2309C-22.2782 41.1664 -25.1253 41.4692 -25.3797 41.5961C-26.5342 42.2114 -26.2113 44.1059 -24.9101 44.4868C-24.2056 43.8911 -24.4796 43.2075 -23.4816 42.9731C-22.4347 42.7289 -22.2293 43.227 -21.427 42.2211V42.2309ZM-17.3471 37.9437C-18.1983 37.2992 -19.7637 37.5335 -20.8008 37.4945C-21.8673 37.4554 -23.1196 38.0316 -22.0434 39.3402C-21.1335 39.643 -20.8889 38.6078 -19.5974 38.6371C-19.0593 39.1937 -19.0495 39.7113 -18.0711 39.4183C-17.396 39.2133 -17.2982 38.5394 -17.3471 37.9437ZM-35.0266 53.4323C-33.2362 51.1178 -36.6605 50.4439 -38.6075 52.319C-38.2553 53.0417 -38.3238 53.5592 -37.3454 53.7057C-37.228 53.7253 -35.4571 53.4811 -35.0364 53.4323H-35.0266ZM48.89 70.4639C48.6552 72.3096 45.4363 73.2471 45.1036 70.5811C45.4754 70.1123 46.2288 69.3408 46.8256 69.3896C47.2757 69.4287 48.4693 70.0635 48.89 70.4639ZM46.5223 65.6005C45.8766 66.4111 45.583 66.6454 44.6731 66.3915C43.7437 66.1279 42.8533 66.1279 42.7848 64.956C42.7164 63.8817 43.7926 63.9696 44.771 64.0184C45.9059 64.0868 46.3658 64.4286 46.5223 65.6103V65.6005ZM52.7057 53.4323C50.4457 53.6667 50.113 50.649 51.0229 50.0045C51.8154 49.4478 52.6666 50.1217 52.8819 50.9029C53.1264 51.7623 53.2243 52.6901 52.696 53.4225L52.7057 53.4323ZM40.241 71.1377C38.3527 69.6533 38.5973 68.8623 40.3976 67.4853C40.8868 68.0908 41.6499 68.5888 41.7575 69.4482C41.8847 70.4053 41.0824 70.9033 40.241 71.128V71.1377ZM37.3646 55.5026C37.5602 53.9987 37.5896 53.5397 39.3703 53.6764C39.9573 54.3796 40.4465 55.8347 39.7812 56.6355C39.018 57.5632 37.8929 56.0398 37.3646 55.5026ZM58.6054 63.6376C57.5781 64.4286 57.2063 64.0966 56.3356 63.2176C55.3865 62.2606 55.8072 61.4403 56.7171 60.7274C57.4901 60.9422 57.8227 60.8153 58.1847 61.7137C58.4489 62.3485 58.6739 62.9344 58.6054 63.6376ZM47.9312 50.3561C46.8452 52.1627 45.0547 52.4655 44.7808 50.151C44.4579 47.397 47.2072 49.4088 47.9312 50.3561ZM58.7815 57.2312L57.7249 56.4792L58.1847 55.3757C56.6976 54.2526 56.5508 53.8815 57.6173 52.2604C57.9499 52.5045 58.4783 52.778 58.7229 53.071C59.2805 53.7546 58.8207 53.4909 58.899 54.4382C59.0066 55.7858 59.7404 56.2839 58.7815 57.241V57.2312ZM41.2683 61.6453C39.6833 60.6785 41.464 57.3386 43.5284 60.1023C44.3796 61.2449 42.4913 62.1336 41.2683 61.6453ZM-24.734 53.3053C-25.2721 51.3131 -26.8277 51.8307 -27.1701 52.0846C-28.1094 52.7585 -27.5615 57.0261 -24.734 53.3053ZM57.6662 74.0382C56.8541 73.4815 57.2846 73.3643 56.7954 72.4463C56.0323 72.1631 55.0637 72.3291 54.9854 71.2842C54.8778 69.9756 56.316 69.5361 57.2063 71.1768C57.6662 72.0166 57.402 71.4991 57.9108 72.0362C58.5174 72.6807 58.3315 73.5401 57.6662 74.0382ZM34.2044 76.1671C33.5195 75.6398 32.952 75.3273 32.3454 74.712C32.4041 74.214 32.3943 73.5792 33.0303 73.3936C34.263 73.0518 37.1982 74.3604 34.2044 76.1671ZM-63.6935 75.0733C-64.7893 73.9503 -64.2708 73.4034 -63.5076 72.3975C-63.0576 71.8116 -62.1085 70.6885 -61.541 70.249C-60.8757 71.3721 -61.6291 71.9287 -62.1379 72.9053C-62.2748 73.169 -63.4293 74.878 -63.6935 75.0733ZM21.5929 97.1929V95.9624C22.4441 95.7085 25.6532 95.5816 25.3401 97.0269C25.0955 98.15 22.2484 97.6715 21.5929 97.1929ZM50.1815 55.3659C49.7706 56.0398 49.5455 56.7331 48.7041 56.8601C46.855 57.1433 46.4049 54.2331 48.4399 54.2038C49.1933 54.194 49.7216 54.7604 50.1815 55.3659ZM91.3718 61.7235C90.0705 61.8797 89.6987 61.4989 89.6596 60.2098C89.6204 58.6668 90.2075 58.7058 91.3816 58.5105C92.0273 59.4871 92.1154 60.6981 91.3718 61.7235ZM61.57 67.5927C60.8949 68.2666 61.1199 68.1982 60.0437 68.1884C58.4391 68.1884 57.7542 67.7295 58.3315 66.1181C59.8382 65.5712 60.8949 66.245 61.57 67.583V67.5927ZM-28.9508 70.2588C-29.6063 70.5713 -30.2325 70.7373 -30.6434 71.4502C-31.0152 72.085 -31.2305 73.0811 -30.2325 73.2862C-29.5379 73.4327 -27.1017 72.3877 -28.9508 70.249V70.2588ZM43.5676 38.9203C43.2643 39.7015 41.8456 39.7504 41.3564 39.7015C40.3389 39.5941 39.8888 38.9886 40.2215 38.0023C41.1216 37.5531 41.4151 37.7679 42.2174 37.8558C43.3817 37.9828 43.5773 37.6898 43.5676 38.93V38.9203ZM48.7726 44.9751C51.1208 45.9907 49.9956 47.4263 48.166 47.1333C45.8766 46.7622 47.2463 44.311 48.7726 44.9751ZM-21.926 64.9169C-22.65 65.6298 -22.6402 65.747 -22.376 66.8212C-22.1901 67.5439 -21.926 68.2177 -20.9769 67.9736C-20.2236 67.7783 -20.3214 66.5868 -20.4192 65.913C-20.5562 64.956 -21.2509 65.0146 -21.9358 64.9169H-21.926ZM50.9838 75.6398C50.837 76.8117 49.5162 77.1339 48.4693 77.1046L47.3637 75.7667C48.166 74.712 50.1619 74.8097 50.9838 75.6398ZM-41.6699 75.5323C-45.0062 73.8722 -44.7714 77.8761 -42.12 77.6222C-41.1709 77.0265 -41.347 76.4992 -41.6699 75.5323ZM21.544 92.8764C22.131 92.0952 22.7865 92.3686 23.8138 92.3686C24.5868 92.3686 25.9761 92.3296 25.6532 93.3159C25.301 94.4292 21.8766 93.98 21.5342 92.8764H21.544ZM42.3446 46.1958C41.9924 45.9321 41.4445 45.4146 41.2096 45.0728C40.6715 44.3208 40.74 44.1743 41.2586 43.5297C42.2663 43.4516 42.7653 43.52 43.3915 44.477C44.0861 45.561 43.3915 45.9126 42.3446 46.1958ZM61.0514 27.8947C60.3568 28.881 59.6328 29.8478 58.4293 28.383C58.038 27.9044 58.2336 27.299 58.4195 26.7325C60.1317 26.1661 59.9165 26.7423 61.0514 27.8947ZM-29.9879 55.3073C-29.0878 54.4089 -29.2443 52.944 -29.9879 52.0846C-31.3968 52.8268 -31.6512 52.9538 -31.4653 54.6237C-30.8293 55.2683 -30.8978 55.1999 -29.9879 55.3171V55.3073ZM-28.0996 66.4892C-26.5636 66.8798 -25.0275 64.4579 -26.2994 63.8134C-27.131 63.3837 -27.4735 64.1161 -28.0018 64.7411C-28.5986 65.4442 -28.6964 65.7275 -28.0898 66.499L-28.0996 66.4892ZM52.8819 61.7137C51.7176 62.6317 49.3498 62.4168 50.1717 60.7664C50.9055 59.2918 53.0677 60.1219 52.8819 61.7137ZM-82.1851 93.98C-82.4004 95.2495 -82.9189 95.9917 -84.2495 96.3921C-86.2454 95.2398 -84.3376 94.5171 -83.7701 94.0679C-82.7428 93.2378 -83.2026 93.5894 -82.1851 93.9897V93.98ZM-29.0487 48.7642C-28.2757 48.4224 -27.3756 48.4224 -27.4441 47.231C-27.4832 46.5181 -28.6084 46.1275 -29.0487 45.8833C-30.0075 46.8306 -30.0368 47.7779 -29.0487 48.7642ZM-49.5166 104.293C-49.4383 103.668 -49.3503 103.101 -48.7633 102.711C-48.186 102.33 -47.1783 102.213 -46.9826 102.994C-46.7673 103.853 -48.0588 105.748 -49.5166 104.293ZM-34.0874 77.6515C-33.2753 77.5441 -32.5024 77.5343 -32.6589 76.4015C-32.7861 75.4737 -33.3438 75.1417 -34.1461 74.9171C-35.3006 75.7862 -34.9973 76.7531 -34.0874 77.6515ZM73.9466 97.7301C73.0563 97.2027 73.0856 96.9781 73.2031 95.8745C73.2813 95.1909 73.4379 94.3022 74.3282 94.5171C75.7469 94.8589 74.7783 97.1441 73.9466 97.7301ZM-22.8652 46.8599C-23.4033 47.2798 -23.9121 47.8658 -23.8925 48.5982C-23.8828 48.9791 -23.4523 50.1803 -23.0707 50.3854C-22.0238 50.9615 -21.7107 47.9244 -22.875 46.8501L-22.8652 46.8599ZM18.1 21.9278C18.0805 21.2051 18.3251 21.0977 18.8045 20.6191C20.7808 21.7129 22.0919 21.2539 21.6222 22.2207C21.2798 22.9141 18.7458 22.4356 18.1 21.9278ZM-23.8436 70.542C-25.1155 69.5264 -27.1212 70.4443 -26.1624 71.8018C-25.8982 72.1827 -24.9883 72.4854 -24.4991 72.1045C-24.1665 71.8506 -23.8143 70.874 -23.8534 70.542H-23.8436ZM44.0176 75.923C41.9337 77.5636 39.6149 74.1358 43.5089 74.4386C43.9491 74.9562 44.1057 75.1612 44.0176 75.923ZM-40.0751 71.9483C-39.0772 70.6885 -39.3511 70.4541 -40.2512 69.4092C-41.4449 70.0342 -41.9145 70.3467 -41.3862 71.792C-40.7111 72.0362 -40.8383 72.0459 -40.0751 71.9483ZM-23.2174 76.6652C-22.6108 76.4992 -22.2586 76.089 -22.1804 75.4347C-22.0434 74.3995 -22.2586 74.3995 -22.9239 73.8233L-24.3426 75.63L-23.873 76.6359L-23.2272 76.6554L-23.2174 76.6652ZM-29.0487 61.7528C-28.4519 61.4891 -27.6789 61.4598 -27.3658 60.7567C-27.1017 60.1707 -27.5517 59.4773 -27.9333 59.0281C-29.0976 59.6434 -30.0173 60.4539 -29.0487 61.7528ZM46.356 40.9809C45.994 43.8032 43.7926 41.7914 43.9296 41.0688C44.2818 40.4438 44.7416 40.3363 45.4559 40.141L46.3462 40.9809H46.356ZM54.5745 58.6472C53.4591 57.7878 53.5178 56.0398 54.6332 55.1901C55.3865 56.157 55.7583 57.8953 54.5745 58.6472ZM-33.2264 49.4576C-31.612 49.6139 -30.9957 48.2173 -32.1012 46.9185C-33.2068 47.5044 -34.1559 48.1783 -33.2264 49.4576ZM-20.8497 56.0495C-19.6365 55.3269 -19.6268 53.7448 -20.9769 53.2956C-21.7009 54.2233 -22.2293 55.3562 -20.8497 56.0495ZM47.8138 61.8993C47.3539 62.2801 46.1701 62.4852 46.3462 60.2586C46.8843 60.0633 47.3931 59.6434 47.8333 60.0828C48.2443 60.493 48.1367 61.5184 47.8138 61.8993ZM39.742 64.5653C39.1844 65.5126 38.3234 65.6591 37.5211 64.8485C37.4428 64.0282 37.6679 63.911 38.2158 63.3837C38.9104 63.4813 39.4877 63.7157 39.742 64.5653ZM53.9581 46.2251C53.1949 47.2408 52.5199 47.0552 51.6784 46.4009C51.7469 45.815 51.8937 45.5122 52.2557 45.0435C53.1754 44.936 53.7135 45.3169 53.9581 46.2251ZM52.5883 79.9563C51.6686 81.1379 50.7979 80.884 49.8097 79.8977C50.1815 79.1555 50.2206 78.9992 51.0914 79.1457C51.6784 79.2433 52.1872 79.4387 52.5883 79.9563ZM-37.9814 59.2234C-38.5097 59.116 -39.087 58.784 -39.5664 59.3113C-39.9577 59.741 -39.9186 60.3074 -39.7523 60.8153C-38.4412 61.4696 -37.8835 60.5613 -37.9912 59.2234H-37.9814ZM46.1114 78.8625C45.6613 79.6047 45.1721 80.0051 44.2818 79.9172C43.8024 79.3117 43.5773 78.6281 44.4188 78.2375C45.3678 77.798 45.632 78.1789 46.1114 78.8722V78.8625ZM-34.0091 70.6592C-34.5668 70.2197 -35.2908 69.8779 -35.6919 70.6201C-36.1029 71.4209 -35.8191 71.8995 -35.1245 72.3194L-34.2341 71.8897L-34.0189 70.6592H-34.0091ZM53.5374 66.9482C52.921 66.6747 52.696 66.9482 52.3144 66.3427C52.0111 65.8544 52.0307 65.3368 52.6177 65.1317C54.007 64.6532 54.7017 65.7861 53.5374 66.9482ZM39.742 39.9652C39.7127 40.5219 39.6442 40.893 39.3409 41.3227C38.3136 41.1859 37.12 40.5023 38.0396 39.3402C38.6071 39.3207 39.2431 39.5941 39.742 39.975V39.9652ZM46.0038 56.3816C45.7396 58.4324 43.8709 58.2175 44.1057 56.2839C44.771 55.7566 44.7612 56.0398 45.4069 55.737L46.0038 56.3816ZM42.3152 55.571C41.4249 54.8483 41.3564 53.6081 42.3935 52.9928C43.1664 53.696 43.8709 55.112 42.3152 55.571ZM3.09151 92.9643C2.98389 93.8237 2.26966 94.1069 1.44781 94.0874L0.674874 93.1011C1.35975 92.2124 2.32836 92.2026 3.09151 92.9741V92.9643ZM65.5227 35.0726L64.8965 35.6878C64.2801 35.5999 63.9768 35.4534 63.5072 35.0726C63.9083 34.1741 63.5268 33.8225 64.8378 33.6077C65.5227 34.428 65.1705 34.2718 65.5325 35.0726H65.5227ZM-19.8713 58.5203C-20.341 58.8035 -20.703 59.1062 -20.6932 59.6238C-20.6932 60.034 -20.5367 60.8152 -19.9985 60.9813C-19.118 61.2449 -18.8147 59.3894 -19.8713 58.5203ZM-42.2374 82.1633C-40.7894 81.4407 -40.3882 80.3371 -42.3352 80.0832L-43.0005 80.7961C-42.7951 81.5578 -42.7853 81.6164 -42.2276 82.1633H-42.2374ZM-24.5481 59.9363C-23.824 59.0379 -24.2545 58.2078 -24.959 57.6023C-26.182 58.5496 -25.8004 60.3367 -24.5481 59.9363ZM72.9487 79.7414C73.6727 78.8429 74.0836 77.4171 72.8215 76.9874C71.9996 77.6515 72.117 79.1652 72.9487 79.7414ZM42.6283 51.8698C41.4249 51.9088 41.1411 50.5123 42.3152 49.8189C42.8533 49.9752 43.1566 49.985 43.1371 50.6393C43.1175 51.1471 42.9903 51.5182 42.6381 51.8698H42.6283ZM-18.8636 48.2955C-19.0495 47.6216 -19.2647 47.231 -19.8713 47.1138C-20.4975 47.7388 -20.4877 48.5005 -19.8713 49.106C-19.3919 49.0279 -19.1963 48.7349 -18.8636 48.2955ZM74.8761 83.013C74.7978 82.427 74.426 82.1536 74.0053 81.8606C73.4574 82.2512 72.978 82.3879 72.8802 83.013C73.5553 83.5013 74.1814 83.5501 74.8761 83.013ZM-26.8962 78.6867C-25.7221 77.2121 -27.405 76.7726 -28.3834 77.7492C-28.0018 78.5109 -27.6691 78.589 -26.8962 78.6867ZM39.8595 46.1568L39.3311 46.6939L38.7343 46.1665C38.6365 45.2974 38.5191 45.1509 39.2039 44.6333C40.0845 44.9263 39.9769 45.1997 39.8692 46.1568H39.8595ZM36.5818 68.5888C36.1611 69.4287 35.2317 69.4971 34.5761 68.833C34.6544 68.3447 34.6838 68.4619 35.0947 68.0517C35.8676 67.9638 36.1905 67.9541 36.5818 68.5888ZM55.7388 51.8014C55.2006 51.86 55.0637 51.733 54.6821 51.3522C54.6625 50.5709 54.868 50.1705 55.6507 50.0435C56.0518 50.649 56.2964 51.108 55.7388 51.8014ZM51.5219 58.8621C50.7392 58.2664 50.7392 57.4949 51.5219 56.8992C52.2361 57.5144 52.3731 58.2078 51.5219 58.8621ZM52.7938 71.8702C52.1676 72.0655 52.5198 72.0069 51.8937 71.7823C51.8252 70.9131 51.6784 70.2979 52.7057 70.2881C52.9993 70.7666 52.9993 71.2647 52.7938 71.8799V71.8702ZM36.7971 78.716C36.484 79.8781 35.7991 79.6828 35.2512 78.8429C35.76 78.13 36.2101 77.8761 36.7971 78.716ZM-38.451 76.7531L-38.9793 75.6007C-39.8599 75.8644 -39.9284 76.6749 -39.2631 77.339L-38.451 76.7531ZM-24.3035 67.5244C-24.5383 67.1142 -24.6068 67.163 -24.9688 66.9091L-25.6145 67.5341C-25.3406 68.1494 -25.546 68.0908 -24.9492 68.54C-24.46 68.1689 -24.372 68.0908 -24.3035 67.5146V67.5244ZM-21.9455 77.5441C-22.2684 77.9738 -22.6695 79.2629 -21.8575 79.175C-21.0454 79.0871 -21.5737 77.8761 -21.9455 77.5441ZM-22.1706 61.5086L-22.9142 60.659L-23.5599 61.4989L-22.9239 62.0946L-22.1706 61.5086ZM-29.2933 75.63L-30.1347 75.0929L-30.5456 75.8156L-29.9683 76.3527L-29.303 75.63H-29.2933ZM-27.5811 44.438C-27.5419 43.6665 -27.5028 43.8813 -28.0116 43.4614C-28.4714 43.9204 -28.6475 43.9887 -28.1779 44.6528L-27.5713 44.4477L-27.5811 44.438ZM87.1158 35.8441C87.5365 36.2249 87.5365 36.7034 87.2332 37.2308C86.832 36.723 86.6755 36.4495 87.1158 35.8441Z" fill="#231F20"/>
</g>
<defs>
<clipPath id="clip0_235_2822">
<rect width="128" height="128" rx="16" fill="white"/>
</clipPath>
</defs>
</svg>
