<svg width="438" height="245" viewBox="0 0 438 245" fill="none" xmlns="http://www.w3.org/2000/svg">
<g clip-path="url(#clip0_215_85)">
<path d="M101.049 192.227C101.527 192.277 101.974 192.498 102.305 192.853L106.39 197.233V194.216C106.39 193.112 107.285 192.216 108.39 192.216H111.919L112.125 192.227C112.603 192.277 113.05 192.498 113.381 192.853L119.397 199.304C119.743 199.674 119.935 200.162 119.935 200.668V226.288L119.947 226.892C119.964 227.243 119.996 227.589 120.044 227.928C120.119 228.465 120.236 228.987 120.391 229.495C121.536 229.939 122.805 230.174 124.22 230.174C125.711 230.174 127.109 229.901 128.421 229.361C129.769 228.801 130.914 228.059 131.878 227.139L132.232 226.785C133.032 225.946 133.677 224.978 134.171 223.87C134.72 222.638 135.003 221.312 135.003 219.879V194.216C135.003 193.112 135.899 192.216 137.003 192.216H140.537L140.744 192.227C141.222 192.277 141.669 192.498 142 192.853L148.017 199.304C148.362 199.674 148.554 200.162 148.554 200.668V226.331C148.554 228.775 148.056 231.103 147.068 233.303C146.093 235.458 144.772 237.359 143.101 238.976C141.437 240.584 139.499 241.868 137.291 242.814C137.015 242.932 136.734 243.045 136.449 243.151C136.3 243.206 136.154 243.257 136.022 243.302C135.743 243.398 135.455 243.489 135.161 243.574C135.011 243.617 134.864 243.656 134.725 243.692C133.414 244.031 132.069 244.216 130.695 244.25C130.542 244.254 130.388 244.256 130.236 244.256C130.184 244.256 130.132 244.251 130.081 244.246L130.062 244.245C127.634 244.224 125.334 243.747 123.186 242.798C121.309 241.968 119.626 240.876 118.16 239.53L118.141 239.511L118.126 239.497L117.582 238.973L117.573 238.964L117.562 238.954L117.548 238.94C117.363 238.753 117.186 238.563 117.02 238.379C116.999 238.356 116.963 238.317 116.93 238.28C116.93 238.28 116.926 238.276 116.913 238.262L116.887 238.233L111.49 232.445C109.905 230.83 108.663 228.942 107.765 226.8C106.848 224.614 106.39 222.302 106.39 219.874V206.288H94.6172V241.817C94.617 242.921 93.7215 243.817 92.6172 243.817H89.0811C88.5268 243.817 87.9973 243.586 87.6191 243.181L81.6025 236.73C81.2574 236.36 81.0655 235.872 81.0654 235.366V206.283H74.7158C74.1613 206.283 73.6312 206.052 73.2529 205.647L67.2363 199.196C66.8914 198.826 66.6994 198.338 66.6992 197.832V194.216C66.6994 193.112 67.5948 192.216 68.6992 192.216H100.842L101.049 192.227Z" fill="#231F20"/>
<path fill-rule="evenodd" clip-rule="evenodd" d="M177.757 191.405C178.484 190.817 179.536 190.809 180.274 191.41C180.437 191.542 180.649 191.677 180.926 191.803L181.225 191.925L181.238 191.93C181.589 192.062 182.104 192.17 182.847 192.211H195.698L195.806 192.218C198.602 192.232 201.268 192.756 203.787 193.795L204.295 194.013L204.771 194.232L204.791 194.241C207.249 195.401 209.426 196.946 211.308 198.876C211.539 199.114 211.766 199.356 211.986 199.603L217.335 205.338C217.461 205.468 217.582 205.596 217.693 205.716C218.769 206.873 219.715 208.133 220.531 209.492C220.818 208.265 221.206 207.064 221.697 205.893C222.864 203.117 224.458 200.674 226.489 198.59C228.52 196.507 230.905 194.867 233.629 193.664C236.388 192.444 239.334 191.838 242.443 191.838C245.175 191.838 247.788 192.316 250.257 193.277L250.749 193.475L250.773 193.486L251.289 193.71L251.753 193.926L251.775 193.937C253.819 194.916 255.662 196.165 257.289 197.68L257.312 197.668C258.812 196.915 260.221 196.343 261.527 195.974C262.969 195.567 264.342 195.336 265.63 195.336C266.963 195.336 268.203 195.534 269.31 195.987L269.319 195.991C270.047 196.293 270.73 196.653 271.339 197.091L271.595 197.285L271.638 197.319L271.842 197.489C271.907 197.543 271.969 197.601 272.026 197.662L278.042 204.114C278.707 204.827 278.761 205.917 278.169 206.692L275.982 209.555C275.334 210.404 274.131 210.594 273.253 209.985L273.048 209.841C272.961 209.787 272.863 209.733 272.751 209.682L272.517 209.586C272.503 209.581 272.486 209.576 272.467 209.57C272.402 209.55 272.311 209.528 272.189 209.509C272.033 209.485 271.835 209.47 271.592 209.47C271.521 209.47 271.451 209.471 271.382 209.474C270.863 209.496 270.215 209.599 269.432 209.809C269.019 209.919 268.553 210.074 268.034 210.276C268.645 211.41 269.164 212.585 269.584 213.797L269.76 214.325C270.454 216.512 270.794 218.832 270.794 221.266C270.794 224.391 270.218 227.369 269.06 230.178C269.057 230.184 269.054 230.191 269.052 230.198L268.849 230.675C268.846 230.682 268.843 230.688 268.84 230.695C268.164 232.237 267.349 233.673 266.391 234.998C266.283 235.147 266.174 235.293 266.065 235.436C265.517 236.156 264.925 236.84 264.291 237.489C262.264 239.567 259.894 241.215 257.188 242.419C255.477 243.18 253.697 243.705 251.848 243.991C251.478 244.048 251.105 244.095 250.731 244.133C249.983 244.209 249.226 244.246 248.46 244.246C245.547 244.246 242.774 243.716 240.163 242.643C240.154 242.639 240.145 242.636 240.137 242.632L239.668 242.431C239.661 242.428 239.654 242.425 239.647 242.422C238.457 241.897 237.329 241.286 236.267 240.59C235.963 240.391 235.664 240.185 235.372 239.973C234.495 239.336 233.666 238.637 232.888 237.874C232.881 237.868 232.874 237.861 232.867 237.855L232.519 237.502C232.514 237.498 232.509 237.494 232.505 237.49C232.273 237.252 232.043 237.007 231.818 236.754L226.458 231.006C225.193 229.704 224.095 228.261 223.167 226.683C222.89 227.829 222.523 228.95 222.062 230.044C220.912 232.764 219.327 235.154 217.317 237.193C215.314 239.231 212.974 240.841 210.312 242.022C208.121 242.996 205.81 243.572 203.392 243.754C203.207 243.768 203.02 243.78 202.831 243.789C202.64 243.799 202.453 243.805 202.27 243.81C202.261 243.81 202.253 243.811 202.244 243.811L201.729 243.817H188.797C188.242 243.817 187.712 243.586 187.334 243.181L181.318 236.73C180.973 236.36 180.78 235.872 180.78 235.366V203.029L174.991 196.823C174.25 196.028 174.28 194.786 175.058 194.027L177.615 191.53L177.757 191.405ZM235.472 213.523C234.957 214.443 234.532 215.416 234.198 216.445C233.719 217.944 233.474 219.544 233.474 221.261C233.474 223.424 233.869 225.412 234.652 227.251C234.787 227.57 234.935 227.884 235.086 228.188C235.575 228.47 236.086 228.731 236.619 228.968C238.425 229.764 240.359 230.169 242.443 230.169C244.487 230.169 246.388 229.769 248.171 228.97C249.996 228.157 251.576 227.06 252.911 225.686C254.248 224.315 255.308 222.694 256.087 220.818L256.226 220.47C256.845 218.862 257.185 217.141 257.235 215.293C257.094 215.344 256.954 215.397 256.815 215.446C256.804 215.449 256.793 215.454 256.782 215.457L256.135 215.669C256.123 215.673 256.11 215.677 256.098 215.681C254.652 216.123 253.201 216.379 251.745 216.443C251.731 216.443 251.717 216.444 251.703 216.445L251.064 216.459H248.921L248.446 216.453C248.439 216.453 248.431 216.453 248.424 216.453C247.89 216.44 247.303 216.408 246.666 216.356C246.662 216.356 246.657 216.356 246.653 216.356C245.739 216.286 244.682 216.127 243.499 215.888C242.585 215.704 241.576 215.457 240.471 215.146C240.465 215.144 240.458 215.142 240.452 215.14L239.347 214.818C239.341 214.816 239.335 214.815 239.329 214.813C238.163 214.461 236.878 214.031 235.472 213.523ZM194.336 229.745H195.693C197.703 229.745 199.571 229.359 201.317 228.599C203.09 227.828 204.631 226.765 205.95 225.412C207.276 224.053 208.325 222.473 209.103 220.655C209.862 218.887 210.251 216.944 210.251 214.819C210.251 212.746 209.866 210.818 209.101 209.015C208.979 208.728 208.847 208.441 208.708 208.161C208.47 208.026 208.229 207.896 207.983 207.773L207.309 207.453C207.202 207.406 207.095 207.361 206.989 207.317C205.343 206.635 203.584 206.288 201.71 206.287H194.336V229.745Z" fill="#231F20"/>
<path fill-rule="evenodd" clip-rule="evenodd" d="M389.21 191.296C389.972 190.994 390.842 191.188 391.404 191.786L409.793 211.338L428.125 191.846C428.504 191.443 429.033 191.215 429.586 191.216C430.139 191.217 430.668 191.447 431.045 191.852L437.062 198.304C437.407 198.674 437.599 199.162 437.599 199.668V241.812C437.598 242.916 436.703 243.812 435.599 243.812H432.069C431.515 243.812 430.985 243.582 430.606 243.176L424.59 236.725C424.245 236.355 424.053 235.867 424.053 235.361V220.01L417.253 227.088C416.875 227.481 416.352 227.703 415.807 227.703C415.261 227.701 414.74 227.477 414.363 227.082L413.017 225.671C412.322 224.943 411.391 223.966 410.344 222.868L402.068 214.188C401.872 213.982 401.682 213.782 401.498 213.589V241.812C401.498 242.916 400.602 243.812 399.498 243.812H395.964C395.409 243.812 394.879 243.582 394.501 243.176L391.587 240.051V241.822C391.587 242.926 390.691 243.822 389.587 243.822H360.729C360.296 243.822 359.874 243.681 359.528 243.421C359.453 243.365 359.376 243.299 359.31 243.232C359.293 243.216 359.275 243.198 359.26 243.181L353.239 236.725C352.894 236.355 352.702 235.867 352.702 235.361V218.02L347.203 212.124C347.065 212.958 346.848 213.771 346.543 214.556C346.258 215.291 345.887 215.972 345.435 216.595L346.037 217.242C346.13 217.341 346.22 217.441 346.306 217.538L346.564 217.843L346.58 217.863L346.848 218.202L346.865 218.223C346.965 218.353 347.063 218.484 347.158 218.616C347.731 219.407 348.225 220.24 348.643 221.109C349.132 222.132 349.506 223.197 349.763 224.291L349.865 224.763C350.105 225.972 350.239 227.164 350.239 228.316C350.239 229.924 349.953 231.608 349.418 233.34C348.873 235.108 348.089 236.747 347.055 238.252C346 239.787 344.706 241.078 343.177 242.114C341.629 243.162 339.892 243.73 338.017 243.796C338.004 243.797 337.992 243.797 337.979 243.797L337.678 243.802H315.911C315.357 243.802 314.827 243.572 314.449 243.166L308.433 236.715C308.087 236.345 307.896 235.857 307.896 235.351V218.022L302.105 211.813C301.364 211.018 301.393 209.777 302.171 209.018L304.73 206.521L304.872 206.395C305.604 205.804 306.662 205.8 307.4 206.41C307.526 206.513 307.691 206.62 307.905 206.728V194.216C307.905 193.112 308.801 192.216 309.905 192.216H327.498L328.112 192.222C329.54 192.249 330.928 192.372 332.28 192.582C332.297 192.585 332.315 192.588 332.332 192.591L332.865 192.688L332.907 192.697C334.34 192.99 335.655 193.495 336.835 194.232C337.518 194.658 338.138 195.168 338.688 195.757L344.703 202.209C345.204 202.746 345.642 203.342 346.017 203.991L346.173 204.272C346.852 205.542 347.215 207.033 347.335 208.669L349.537 206.521C350.271 205.804 351.429 205.759 352.217 206.417C352.335 206.516 352.496 206.622 352.712 206.73V194.216C352.712 193.112 353.608 192.216 354.712 192.216H383.082L383.288 192.227C383.766 192.276 384.214 192.498 384.545 192.853L387.947 196.501V193.156C387.947 192.336 388.448 191.599 389.21 191.296ZM366.258 207.203H379.672C380.226 207.203 380.756 207.433 381.135 207.838L387.151 214.29C387.497 214.661 387.688 215.148 387.688 215.655V219.28C387.688 220.384 386.793 221.28 385.688 221.28H366.258V229.752H383.57L383.777 229.762C384.255 229.812 384.702 230.033 385.033 230.388L387.947 233.512V206.288H366.258V207.203ZM321.451 229.74H331.629C332.314 229.74 332.873 229.54 333.387 229.124C334.075 228.563 334.666 227.886 335.156 227.078L335.354 226.741C335.763 226.007 336.08 225.224 336.301 224.388L336.397 224.001C336.604 223.139 336.693 222.433 336.693 221.87C336.693 221.682 336.682 221.482 336.664 221.269H321.451V229.74ZM321.446 207.198H327.676C328.906 207.198 329.962 207.13 330.857 206.999C331.686 206.883 332.288 206.674 332.707 206.433L332.828 206.358C332.864 206.334 332.898 206.309 332.932 206.283H321.446V207.198Z" fill="#231F20"/>
<path fill-rule="evenodd" clip-rule="evenodd" d="M50.0166 192.112C50.6675 192.015 51.3246 192.245 51.7734 192.726L57.7891 199.176C57.9273 199.324 58.0423 199.493 58.1299 199.676L77.917 240.948C78.2138 241.567 78.1717 242.296 77.8057 242.877C77.4395 243.459 76.8004 243.812 76.1133 243.812H72.1562C71.6018 243.812 71.0716 243.582 70.6934 243.176L64.6768 236.725C64.5335 236.571 64.4149 236.396 64.3262 236.205L57.3408 221.207H52.3594L42.1846 242.668C41.8535 243.366 41.1495 243.812 40.377 243.812H36.2354C35.6809 243.812 35.1507 243.582 34.7725 243.176L28.7559 236.725C28.5502 236.504 28.4025 236.245 28.3145 235.97V241.817C28.3143 242.921 27.4188 243.817 26.3145 243.817H22.7852C22.2307 243.817 21.7005 243.586 21.3223 243.181L15.3057 236.73C14.9606 236.36 14.7686 235.872 14.7686 235.366V206.283H8.41797C7.86347 206.283 7.33332 206.052 6.95508 205.647L0.938477 199.196C0.593525 198.826 0.401547 198.338 0.401367 197.832V194.216C0.401537 193.112 1.29696 192.216 2.40137 192.216H34.5439L34.751 192.227C35.2291 192.277 35.6759 192.498 36.0068 192.853L42.0234 199.304C42.3686 199.674 42.5605 200.162 42.5605 200.668V204.288C42.5604 205.393 41.665 206.288 40.5605 206.288H40.4336C40.454 206.304 40.4762 206.318 40.4961 206.334C40.7029 206.502 41.0121 206.685 41.4648 206.857C41.5602 206.893 41.6672 206.926 41.7852 206.957L48.5146 193.21L48.6348 192.997C48.945 192.521 49.447 192.196 50.0166 192.112ZM28.3145 234.752C28.3432 234.662 28.3778 234.573 28.4199 234.487L38.0156 214.746L35.2178 211.746C34.4773 210.952 34.5059 209.712 35.2822 208.953L37.8359 206.455L37.9766 206.33C37.9948 206.316 38.0145 206.302 38.0332 206.288H28.3145V234.752Z" fill="#231F20"/>
<path d="M111.919 219.88C111.919 221.585 112.222 223.188 112.834 224.684C113.446 226.185 114.293 227.487 115.393 228.585C116.488 229.688 117.788 230.562 119.291 231.21C120.789 231.853 122.433 232.174 124.22 232.174C125.962 232.174 127.62 231.853 129.183 231.21C130.746 230.562 132.105 229.688 133.26 228.585C134.42 227.482 135.331 226.18 135.998 224.684C136.665 223.188 137.003 221.585 137.003 219.88V194.217H140.537V219.88C140.537 222.045 140.099 224.092 139.228 226.032C138.351 227.967 137.177 229.651 135.693 231.086C134.21 232.521 132.478 233.671 130.487 234.524C128.501 235.376 126.41 235.805 124.22 235.805V235.8C121.99 235.8 119.908 235.37 117.977 234.518C116.05 233.665 114.373 232.516 112.954 231.081C111.536 229.647 110.421 227.962 109.609 226.027C108.798 224.092 108.39 222.044 108.39 219.874V194.217H111.919V219.88Z" fill="white"/>
<path fill-rule="evenodd" clip-rule="evenodd" d="M242.443 193.839C245.28 193.839 247.954 194.4 250.447 195.524C252.941 196.647 255.107 198.189 256.929 200.145L257.596 199.773C259.258 198.894 260.752 198.271 262.071 197.899C263.39 197.526 264.575 197.336 265.63 197.336C266.77 197.336 267.741 197.506 268.553 197.838C269.364 198.175 270.036 198.567 270.563 199.026L268.377 201.89C268.049 201.64 267.666 201.437 267.219 201.269C266.776 201.1 266.223 201.018 265.576 201.018C264.805 201.018 263.909 201.155 262.898 201.426C261.883 201.696 260.687 202.166 259.309 202.83C259.269 202.871 259.209 202.892 259.124 202.892C260.299 204.638 261.206 206.507 261.838 208.478C262.465 210.454 262.777 212.568 262.777 214.815C262.777 217.689 262.251 220.406 261.195 222.964C260.14 225.527 258.69 227.753 256.844 229.642C254.997 231.536 252.837 233.038 250.358 234.141C247.88 235.244 245.246 235.795 242.443 235.795C239.601 235.795 236.932 235.243 234.438 234.141C231.94 233.038 229.768 231.541 227.921 229.642C226.075 227.748 224.612 225.521 223.542 222.964C222.467 220.406 221.929 217.689 221.929 214.815C221.929 211.945 222.467 209.229 223.542 206.666C224.617 204.108 226.074 201.881 227.921 199.986C229.768 198.092 231.94 196.597 234.438 195.494C236.932 194.391 239.601 193.839 242.443 193.839ZM256.018 204.576C253.828 205.659 251.867 206.507 250.145 207.105C248.417 207.707 246.704 208.008 245.002 208.008H242.931C242.324 208.008 241.612 207.977 240.801 207.91C239.989 207.849 239.013 207.706 237.878 207.477C236.738 207.247 235.414 206.906 233.891 206.446C232.367 205.987 230.615 205.383 228.624 204.633C227.609 206.088 226.832 207.671 226.279 209.376C225.732 211.087 225.458 212.895 225.458 214.81C225.458 217.224 225.901 219.481 226.797 221.584C227.688 223.688 228.898 225.522 230.421 227.079C231.944 228.641 233.741 229.877 235.807 230.796C237.877 231.71 240.089 232.169 242.443 232.169C244.758 232.169 246.938 231.715 248.989 230.796C251.04 229.882 252.827 228.641 254.346 227.079C255.869 225.517 257.062 223.683 257.934 221.584C258.805 219.481 259.243 217.225 259.243 214.81L259.248 214.819C259.248 212.905 258.965 211.087 258.393 209.357C257.825 207.631 257.033 206.037 256.018 204.576ZM242.443 197.465C240.293 197.465 238.27 197.836 236.384 198.587C234.497 199.338 232.805 200.38 231.302 201.713C234.547 202.877 237.086 203.627 238.913 203.959C240.74 204.291 242.179 204.459 243.234 204.459C243.433 204.459 243.638 204.45 243.842 204.43C244.046 204.409 244.245 204.399 244.449 204.399H244.693C245.868 204.398 247.178 204.173 248.621 203.714C250.064 203.26 251.697 202.611 253.523 201.779C252.06 200.447 250.388 199.394 248.502 198.623C246.615 197.852 244.594 197.47 242.443 197.47V197.465Z" fill="white"/>
<path d="M383.082 197.838H358.241V209.203H379.672V212.828H358.241V231.751H383.57V235.371H354.712L354.702 235.36V212.822C354.617 212.822 354.358 212.802 353.911 212.761C353.468 212.72 352.916 212.619 352.269 212.45C351.621 212.282 350.95 212.041 350.263 211.73C349.571 211.418 348.943 210.989 348.376 210.448L350.935 207.952C351.338 208.289 351.846 208.57 352.458 208.795C353.065 209.025 353.816 209.162 354.712 209.203V194.217H383.082V197.838Z" fill="white"/>
<path d="M34.5449 197.838H20.2979V235.365H16.7686V197.831H2.40137V194.217H34.5449V197.838Z" fill="white"/>
<path d="M100.843 197.838H86.6006V235.365H83.0654V197.831H68.6992V194.217H100.843V197.838Z" fill="white"/>
<path fill-rule="evenodd" clip-rule="evenodd" d="M179.013 192.961C179.421 193.293 179.924 193.578 180.536 193.803C181.148 194.033 181.895 194.166 182.791 194.212H195.698L195.688 194.217C198.446 194.217 201.045 194.759 203.484 195.841C205.918 196.923 208.049 198.399 209.876 200.273C211.703 202.146 213.148 204.332 214.203 206.828C215.258 209.325 215.785 211.991 215.785 214.819C215.785 217.653 215.258 220.314 214.203 222.816C213.148 225.312 211.703 227.487 209.876 229.34C208.054 231.193 205.924 232.659 203.484 233.741C201.05 234.824 198.451 235.365 195.688 235.365H182.781V197.831C182.697 197.831 182.437 197.811 181.989 197.771C181.546 197.73 180.994 197.628 180.347 197.46C179.7 197.292 179.028 197.05 178.341 196.738C177.649 196.422 177.021 195.999 176.454 195.458L179.013 192.961ZM186.32 231.745H195.693C197.968 231.745 200.11 231.306 202.116 230.433C204.122 229.56 205.88 228.35 207.383 226.808C208.886 225.266 210.07 223.478 210.941 221.442C211.817 219.404 212.251 217.193 212.251 214.819C212.251 212.491 211.818 210.295 210.941 208.233C210.07 206.17 208.881 204.372 207.383 202.83C205.88 201.288 204.127 200.073 202.116 199.18C200.11 198.286 197.963 197.836 195.693 197.836H186.32V231.745Z" fill="white"/>
<path fill-rule="evenodd" clip-rule="evenodd" d="M70.0977 235.36H66.1396L55.6123 212.756H45.0781L34.3613 235.36H30.2188L41.3008 212.567C40.609 212.445 39.8413 212.226 38.9902 211.914C38.1393 211.603 37.3674 211.092 36.6807 210.383L39.2344 207.886C39.6425 208.218 40.1507 208.498 40.7578 208.728C41.3651 208.957 42.0971 209.091 42.9482 209.132L50.3105 194.09L70.0977 235.36ZM46.7207 209.197H54.0234L50.375 201.519L46.7207 209.197Z" fill="white"/>
<path d="M409.795 214.258L429.582 193.216V235.36H426.053V202.33L409.795 219.251L393.481 202.142V235.36H389.947V193.155L409.795 214.258Z" fill="white"/>
<path fill-rule="evenodd" clip-rule="evenodd" d="M327.498 194.217C329.041 194.217 330.53 194.334 331.974 194.559C333.417 194.789 334.681 195.244 335.776 195.928C336.871 196.612 337.747 197.562 338.395 198.767C339.041 199.977 339.365 201.56 339.365 203.51C339.365 204.883 339.131 206.176 338.663 207.381C338.195 208.591 337.434 209.612 336.384 210.439C337.394 211.021 338.27 211.761 338.996 212.654C339.728 213.548 340.336 214.508 340.824 215.524C341.312 216.544 341.666 217.607 341.89 218.709C342.109 219.812 342.223 220.865 342.223 221.865C342.223 223.239 341.979 224.72 341.491 226.298C341.003 227.88 340.306 229.336 339.391 230.668C338.475 232.001 337.358 233.114 336.039 234.008C334.72 234.901 333.246 235.351 331.629 235.351H309.896V212.822C309.816 212.822 309.552 212.802 309.104 212.761C308.657 212.72 308.108 212.619 307.461 212.45C306.814 212.282 306.141 212.041 305.454 211.73C304.762 211.418 304.135 210.989 303.567 210.448L306.128 207.952C306.536 208.289 307.043 208.571 307.649 208.795C308.262 209.025 309.009 209.162 309.905 209.203V194.217H327.498ZM313.435 231.74H331.629C332.764 231.74 333.77 231.389 334.646 230.679C335.518 229.969 336.259 229.116 336.866 228.115C337.473 227.12 337.931 226.047 338.234 224.899C338.538 223.755 338.693 222.743 338.693 221.87C338.693 221.038 338.573 220.104 338.329 219.063C338.085 218.021 337.693 217.034 337.146 216.095C336.598 215.156 335.866 214.38 334.955 213.752C334.039 213.129 332.933 212.817 331.634 212.817H313.435V231.74ZM313.43 209.197H327.676C328.975 209.197 330.131 209.127 331.146 208.979C332.162 208.836 333.013 208.564 333.705 208.166C334.397 207.768 334.926 207.197 335.289 206.451C335.652 205.701 335.836 204.725 335.836 203.515C335.836 201.351 335.174 199.865 333.855 199.053C332.536 198.241 330.415 197.831 327.493 197.831H313.43V209.197Z" fill="white"/>
<path d="M337.417 0.833114C337.821 0.709364 339.344 0.240019 340.959 0.946395C341.967 1.3876 342.773 2.18677 343.222 3.20421C343.62 4.10703 343.637 4.94898 343.598 5.48155C343.52 6.52178 343.247 7.79421 342.968 8.95421C342.674 10.177 342.298 11.5826 341.931 12.9669C341.164 15.8565 340.447 18.6378 340.187 20.6417L340.186 20.6476C339.894 22.861 339.116 25.1871 338.159 27.4278C339.305 26.4153 340.497 25.4847 341.711 24.7325C343.896 23.379 347.044 22.0406 350.33 23.1105L352.632 23.8605L353.058 26.2442C353.306 27.6389 352.947 28.9494 352.736 29.631C352.481 30.4564 352.128 31.2951 351.814 31.9982C351.6 32.48 351.051 33.6656 350.906 33.9874C350.625 34.613 350.494 34.9563 350.448 35.1144L350.446 35.1222L350.443 35.131C350.096 36.3237 349.891 37.4828 349.144 39.3702C349.097 39.491 349.046 39.69 349.011 40.2696C349 40.4408 348.973 41.0281 348.949 41.3595C348.918 41.7897 348.863 42.3259 348.741 42.9083L348.742 42.9093C348.538 43.8944 348.105 44.884 347.894 45.3898C347.613 46.0607 347.455 46.4586 347.369 46.8048C346.936 48.5669 346.337 51.0465 345.077 53.2491L345.078 53.2501C345.075 53.256 345.07 53.2618 345.066 53.2677C345.061 53.2776 345.056 53.289 345.051 53.2989L345.05 53.298C344.848 53.6515 344.637 53.9559 344.415 54.2257C344.335 54.323 344.251 54.4137 344.18 54.4913C344.162 54.5753 344.145 54.7055 344.134 54.9269C344.128 55.0475 344.123 55.1754 344.118 55.3487C344.113 55.5091 344.108 55.7175 344.098 55.9327C344.076 56.3719 344.029 56.9386 343.899 57.5694L343.815 57.9835L343.646 58.3722C342.903 60.0737 341.465 60.8484 340.771 61.173C340.04 61.5152 339.178 61.7759 338.657 61.9405C337.401 62.338 336.394 62.6908 335.471 63.3575L335.457 63.3663C334.965 63.719 334.447 63.948 334.17 64.0646C333.829 64.2082 333.462 64.3414 333.115 64.4601C333.069 64.4759 333.021 64.4891 332.974 64.505C333.092 64.6076 333.209 64.7089 333.322 64.8097C334.642 65.979 336.088 67.3815 336.922 68.4493C337.026 68.5827 337.12 68.7204 337.206 68.8517C338.038 68.5891 338.839 68.5754 339.468 68.6319L339.849 68.6769C342.204 69.0111 343.421 70.7553 343.91 71.7355C344.439 72.7949 344.675 73.9817 344.657 75.0284L344.624 77.1036L344.595 77.1222C344.804 77.3053 345.023 77.503 345.229 77.712C346.994 79.4979 347.204 79.9054 348.553 80.6857L353.365 83.2911C353.425 83.3005 353.497 83.3111 353.61 83.3273C353.739 83.3455 353.935 83.373 354.143 83.4103C355.088 83.5799 356.588 83.9957 357.863 85.4337C358.184 85.7935 358.423 86.1285 358.61 86.4239C359.298 86.699 360.3 87.0967 361.228 87.5001C362.257 87.9482 363.668 88.6007 364.699 89.3712L364.705 89.3761C364.657 89.3401 364.727 89.3994 365.116 89.5704C365.296 89.6494 365.486 89.7272 365.738 89.8321C365.974 89.9301 366.262 90.0509 366.555 90.1827C367.533 90.6232 369.689 91.6394 370.761 93.9669C371.658 95.909 371.569 97.9388 371.521 99.0567C371.461 100.476 371.408 101.136 371.528 101.802L371.532 101.817C371.533 101.82 371.536 101.839 371.545 101.873C371.555 101.913 371.571 101.968 371.594 102.04C371.644 102.198 371.707 102.374 371.803 102.638C371.956 103.059 372.276 103.905 372.434 104.79C372.601 105.73 372.682 107.18 371.922 108.671C371.147 110.19 369.841 111.092 368.575 111.619L368.571 111.62C367.791 111.945 366.283 112.68 365.032 113.022C363.367 113.476 361.701 113.482 359.734 112.995C358.382 112.663 355.771 112.183 353.065 111.787C350.302 111.383 347.852 111.13 346.688 111.145C346.171 111.154 346.192 111.193 345.382 111.302C344.434 111.429 343.481 111.421 342.166 111.143L342.159 111.142C340.441 110.775 338.902 110.846 337.248 111.03C335.85 111.187 333.519 111.585 331.453 111.346H331.442C330.834 111.276 330.115 111.175 329.651 111.116C329.112 111.048 328.682 111.004 328.298 110.989C327.562 110.961 327.154 111.049 326.832 111.198L326.823 111.203C325.536 111.796 324.174 111.699 323.705 111.668C323.022 111.623 322.259 111.512 321.681 111.431C320.239 111.227 319.465 111.156 319.058 111.216L319.038 111.22C318.315 111.323 317.386 111.441 316.442 111.609C316.587 112.125 316.747 112.845 316.747 113.681C316.747 114.146 316.706 114.535 316.66 114.847C316.639 114.99 316.615 115.121 316.601 115.204C316.584 115.3 316.578 115.344 316.571 115.385L316.564 115.433V115.439C316.565 115.444 316.565 115.453 316.565 115.465C316.567 115.486 316.57 115.521 316.576 115.571C316.753 116.783 316.818 117.344 316.818 118.745V118.777C316.791 122.303 316.835 126.156 316.532 129.926C316.493 130.439 316.431 130.963 316.381 131.395C316.327 131.86 316.283 132.253 316.254 132.631C316.194 133.416 316.231 133.834 316.287 134.055C316.774 135.924 317.632 138.827 317.673 141.64C317.717 144.727 316.801 148.177 313.508 150.769L312.18 151.816L310.502 151.603C308.269 151.32 306.792 150.258 305.773 149.147C305.672 149.221 305.567 149.297 305.456 149.367C305.086 149.603 304.665 149.803 304.6 149.836C304.468 149.902 304.369 149.955 304.237 150.038L301.804 151.578L299.553 149.781C298.737 149.13 297.962 148.507 297.375 147.931C296.742 147.309 296.001 146.434 295.609 145.18C295.253 144.037 295.327 142.971 295.363 142.43C295.41 141.742 295.465 141.256 295.491 140.395C295.572 137.685 295.451 135.474 294.837 133.295C294.522 132.187 294.38 131.088 294.277 130.418C294.161 129.657 294.067 129.199 293.915 128.785C293.776 128.416 293.271 127.295 292.984 126.079L292.979 126.062C292.784 125.218 292.735 124.547 292.702 124.129C292.671 123.736 292.656 123.603 292.612 123.419C292.559 123.192 292.619 123.348 292.124 122.566C291.842 122.12 291.481 121.482 291.226 120.616C290.977 119.773 290.882 118.893 290.893 117.958V117.951C290.921 115.777 290.956 115.275 290.639 113.466C290.586 113.166 290.546 112.863 290.516 112.576C290.423 112.579 290.329 112.582 290.232 112.585C288.608 112.644 286.551 112.767 284.474 112.922C282.397 113.077 280.339 113.263 278.713 113.444C278.567 113.461 278.426 113.478 278.289 113.494C278.299 113.676 278.313 113.875 278.336 114.091C278.482 115.456 278.819 116.778 279.147 118.313L279.151 118.325C279.804 121.42 279.11 123.277 278.86 124.587C278.867 124.561 278.844 124.779 278.904 125.388C278.964 125.996 279.077 126.728 279.221 127.6C279.474 129.136 279.894 131.414 279.885 133.191V133.202C279.871 134.964 279.819 135.999 279.956 137.1L280.026 137.578L280.027 137.582C280.13 138.183 280.277 138.723 280.475 139.508C280.648 140.195 280.892 141.182 280.956 142.229C281.025 143.356 280.899 144.659 280.28 145.999C279.671 147.317 278.718 148.384 277.579 149.271L276.997 149.724L276.293 149.942C274.606 150.464 273.088 150.031 272.209 149.677C271.265 149.297 270.424 148.751 269.774 148.275C269.223 147.87 268.693 147.425 268.222 147.006C267.493 147.874 266.507 148.708 265.2 149.126C263.129 149.788 261.18 149.126 259.855 147.93C258.691 146.878 258.04 145.486 257.666 144.273C257.273 142.995 257.076 141.557 257.049 140.046V140.038C257.032 138.946 256.93 138.606 256.858 138.395C256.799 138.218 256.717 138.018 256.54 137.61C256.374 137.227 256.144 136.706 255.89 136.054L255.688 135.524C253.703 130.206 254.019 127.126 253.507 123.569C253.488 123.541 253.464 123.504 253.432 123.457C253.34 123.324 253.159 123.065 252.982 122.765C252.574 122.072 252.209 121.214 252.039 120.104C251.88 119.064 251.917 117.959 252.091 116.766L252.092 116.762C252.249 115.691 252.127 115.146 252.048 114.915C251.976 114.707 251.869 114.547 251.657 114.355C251.392 114.114 251.039 113.887 250.402 113.52C249.991 113.282 248.83 112.666 247.985 111.827C247.458 111.307 247.052 110.765 246.759 110.347C246.608 110.132 246.468 109.919 246.352 109.743C246.227 109.555 246.131 109.412 246.034 109.27C245.848 108.997 245.734 108.86 245.684 108.802C244.875 108.4 244.079 108.364 242.286 108.54C240.553 108.71 237.676 109.13 234.487 108.095L234.477 108.09L234.465 108.087C234.584 108.126 234.195 108.031 232.935 107.932C231.871 107.848 230.541 107.783 229.152 107.734C226.393 107.639 223.556 107.615 222.419 107.621C221.8 107.628 221.399 107.764 220.33 108.068C219.346 108.349 217.529 108.852 215.379 108.179L215.365 108.175L215.351 108.17C214.241 107.814 213.965 107.812 213.887 107.816C213.876 107.816 213.655 107.809 212.785 108.246L212.783 108.244C211.704 108.787 210.586 109.155 209.646 109.432C208.467 109.779 207.994 109.88 207.043 110.173C206.639 110.297 206.304 110.415 206.027 110.525C206.244 111.669 206.368 112.723 206.453 113.727C206.591 115.348 206.628 116.52 206.801 117.96L206.884 118.597L206.885 118.608C206.983 119.318 207.123 120.043 207.286 120.901C207.403 121.514 207.533 122.201 207.641 122.911L207.74 123.629L207.742 123.649C207.932 125.249 208.124 127.536 208.278 128.953L208.361 129.852C208.516 131.897 208.401 133.581 208.385 134.745C208.367 136.062 208.433 137.266 208.958 139.02C209.285 140.088 209.572 141.099 209.687 142.207C209.803 143.336 209.72 144.372 209.6 145.477L209.598 145.494C209.524 146.145 209.429 146.869 209.251 147.536C209.057 148.263 208.711 149.152 207.987 149.969C207.294 150.752 206.51 151.173 206.035 151.403C205.674 151.579 205.017 151.854 204.755 151.971L202.287 153.068L197.411 148.439C197.352 148.527 197.295 148.618 197.233 148.706C196.953 149.107 196.563 149.617 196.068 150.088C195.591 150.542 194.792 151.175 193.662 151.48L193.659 151.481C192.162 151.883 190.553 151.699 189.187 150.773C188.004 149.971 187.388 148.869 187.07 148.164C186.505 146.907 186.226 145.203 186.194 145.047C186.031 144.335 185.877 143.917 185.609 143.006C185.355 142.139 185.1 141.119 184.99 139.795C184.79 137.41 184.027 132.99 183.344 130.932C183.243 130.627 183.181 130.474 183.156 130.418C183.156 130.418 183.154 130.414 183.153 130.412C183.128 130.373 182.98 130.149 182.839 129.877C182.516 129.255 182.353 128.645 182.233 128.08C182.115 127.522 181.993 126.771 181.845 125.743V125.741C181.757 125.13 181.613 124.582 181.409 123.873C181.218 123.21 180.931 122.27 180.736 121.23L180.733 121.217C180.182 118.219 179.463 115.231 178.711 112.1L178.706 112.085L178.703 112.07C178.625 111.736 178.576 111.417 178.542 111.165C178.527 111.052 178.514 110.937 178.501 110.827C178.448 110.828 178.394 110.827 178.34 110.828C177.958 110.837 177.603 110.858 177.307 110.881C177.164 111.017 177.008 111.169 176.847 111.33C176.556 111.62 176.275 111.91 176.06 112.142C175.979 112.229 175.914 112.3 175.865 112.355C175.876 112.395 175.888 112.437 175.898 112.48L176.008 112.938L176.012 112.95C176.896 116.883 176.999 120.843 177.066 124.4C177.136 128.085 177.169 131.329 177.727 134.475L177.728 134.479C178.118 136.688 178.096 137.44 178.513 138.466C178.9 139.402 179.215 140.527 179.43 141.549C179.64 142.548 179.82 143.76 179.8 144.839C179.783 146.023 179.474 147.26 178.695 148.35C177.929 149.421 176.934 150.037 176.079 150.388C174.615 150.989 172.961 151.018 172.359 151.043L172.36 151.044C172.358 151.044 172.355 151.044 172.353 151.044C172.346 151.044 172.339 151.045 172.333 151.045L172.332 151.044C169.766 151.165 167.96 149.755 166.983 148.269C166.883 148.116 166.79 147.96 166.704 147.804C166.011 148.962 165.032 150.134 163.596 150.811C161.872 151.623 160.195 151.406 158.954 150.889C157.858 150.431 157.036 149.721 156.585 149.306C156.34 149.08 156.114 148.856 155.97 148.713C155.89 148.634 155.833 148.578 155.785 148.531C155.743 148.491 155.723 148.473 155.72 148.471C155.631 148.394 155.287 148.101 155.157 147.984C154.934 147.781 154.453 147.334 154.072 146.629C153.713 145.964 153.593 145.342 153.548 145.111C153.522 144.98 153.497 144.833 153.48 144.736C153.461 144.625 153.441 144.511 153.416 144.381C153.005 142.241 153.147 139.667 153.167 138.252L151.73 128.953C151.166 126.9 150.913 125.12 150.728 123.504C150.529 121.773 150.419 120.426 150.124 118.821C149.994 118.127 149.836 117.515 149.635 116.714C149.52 116.257 149.397 115.753 149.279 115.197C149.125 115.212 148.976 115.223 148.837 115.232L148.817 115.234H148.797C147.611 115.298 147.008 115.306 146.273 115.416C146.215 115.437 145.99 115.509 145.532 115.683C144.952 115.903 144.228 116.198 143.466 116.517C142.097 117.09 140.695 117.706 139.949 118.035L133.979 121.612C132.943 122.232 132.047 122.444 131.627 122.551C131.53 122.576 131.476 122.591 131.446 122.599C131.222 122.742 131.079 122.838 130.912 122.947C130.754 123.051 130.472 123.237 130.124 123.411C129.754 123.596 129.418 123.716 129.143 123.806C128.897 123.886 128.582 123.978 128.259 124.074L128.246 124.077L128.233 124.081C127.642 124.253 126.402 125.017 125.406 125.852L125.405 125.851C124.956 126.227 124.48 126.466 124.356 126.529C124.119 126.651 123.864 126.768 123.631 126.871C123.159 127.079 122.597 127.308 122.073 127.518C121.394 127.79 121.149 127.883 120.567 128.116C120.346 128.205 120.158 128.282 120.007 128.345C119.932 128.376 119.872 128.402 119.826 128.422C119.783 128.441 119.763 128.452 119.76 128.453L119.759 128.452C118.479 129.073 117.448 129.604 116.327 129.833C115.824 129.936 115.281 129.98 115.021 130.007C114.673 130.042 114.201 130.095 113.462 130.212C113.277 130.242 113.177 130.275 112.995 130.35C112.818 130.423 112.76 130.452 112.45 130.584C112.199 130.691 111.887 130.819 111.516 130.949L111.504 130.953C110.673 131.241 109.921 131.363 109.47 131.438C108.976 131.519 108.82 131.549 108.685 131.589C108.586 131.622 108.465 131.676 108.034 131.89C107.646 132.082 106.981 132.414 106.158 132.664L106.159 132.665C106.155 132.666 106.151 132.668 106.146 132.669C106.141 132.671 106.136 132.672 106.131 132.674L106.13 132.673C105.582 132.841 104.973 132.987 104.704 133.057C104.356 133.147 104.171 133.207 104.021 133.272L104.019 133.273C102.764 133.811 101.754 134.111 100.872 134.355C100.466 134.467 100.118 134.561 99.7842 134.655L98.5898 135.079C96.9758 135.652 95.7357 135.822 94.6309 135.903C93.5292 135.985 93.0745 135.97 92.207 136.123H92.2031C91.4737 136.251 90.9272 136.43 89.9766 136.714C89.0454 136.992 87.8921 137.312 86.3916 137.473L86.3906 137.472C83.2539 137.814 80.0368 138.263 77.0098 137.799C73.6459 137.283 70.7485 135.734 67.6846 132.866L65.4541 130.779L66.8545 128.064C68.4793 124.914 70.0301 122.724 72.335 121.086C74.3804 119.633 76.9291 118.744 79.5117 117.705C87.9404 114.306 90.1458 113.386 92.0244 112.221C92.975 111.631 93.847 110.975 95.5107 109.745C97.136 108.544 99.3453 106.926 102.791 104.577C105.004 103.069 107.397 101.936 109.145 101.009C111.01 100.019 112.492 99.1041 113.778 97.8214L113.78 97.8204C114.811 96.7936 115.584 95.9552 116.281 95.1925C116.96 94.45 117.651 93.6857 118.404 92.9591C120.032 91.3893 121.838 90.0975 125 88.3937L125.004 88.3917C127.03 87.3026 127.553 86.4084 127.875 85.5343C128.093 84.9411 128.258 84.2116 128.445 83.128C128.616 82.1393 128.824 80.7235 129.122 79.2892L129.123 79.2853C129.812 75.9895 130.554 74.1595 131.146 72.4269C131.7 70.8079 132.278 68.8711 132.874 64.84L132.875 64.8341C133.683 59.4265 135.101 54.2484 137.034 49.1925C139.764 42.0483 141.209 38.459 143.496 35.4571C144.639 33.957 145.931 32.6779 147.455 31.2325C149.013 29.7546 150.879 28.0445 153.471 25.4884L153.473 25.4855C157.31 21.7069 161.405 19.4842 165.223 17.1554C168.272 15.2956 170.294 14.1623 172.58 13.4288C174.74 12.7358 177.083 12.4338 180.41 11.9054L181.477 11.7247C183.897 11.287 185.888 10.7482 188.293 10.2062C190.986 9.59923 193.88 9.07483 197.569 9.00304L198.98 8.96593C205.176 8.76975 206.228 8.19548 212.376 7.10362L213.775 6.86143C219.542 5.88635 226.868 6.84527 231.804 7.47862C236.916 8.12547 243.409 8.64335 248.178 8.33995H248.181C251.255 8.14691 253.666 8.06279 256.104 8.41026C258.579 8.76328 260.872 9.52824 263.819 10.7257C268.028 12.435 273.004 13.8045 277.675 14.9327L278.4 15.1232C282.106 16.1765 286.93 18.7188 291.174 21.3907C295.729 24.2584 300.354 27.7419 302.863 30.6144L303.493 31.3497C303.697 31.5917 303.892 31.8287 304.076 32.0499C304.165 32.1568 304.252 32.2601 304.336 32.3605C304.881 30.557 305.237 28.8394 305.642 26.9835C306.089 24.932 306.61 22.6518 307.577 20.4025C309.653 15.5738 313.466 11.5638 321.123 7.83897L321.125 7.838C322.822 7.01383 324.21 6.62278 325.443 6.33214C326.701 6.03598 327.445 5.90782 328.51 5.55577L328.692 5.49034C329.151 5.31143 329.844 4.96188 330.786 4.41905C331.921 3.76473 332.781 3.21383 333.992 2.50011C334.936 1.94385 336.246 1.19189 337.417 0.833114Z" fill="white"/>
<path d="M285.229 91.4808C285.774 90.3968 285.832 90.1684 287.11 90.3822C287.972 90.5249 288.72 90.8107 289.309 91.5668C287.958 93.293 286.679 92.9218 285.229 91.4808Z" fill="#231F20"/>
<path d="M277.313 89.056C278.704 88.4155 279.093 88.9676 279.794 89.976C279.134 91.0556 278.417 91.6382 277.112 91.5101C276.408 90.6256 276.078 89.6267 277.313 89.056Z" fill="#231F20"/>
<path d="M263.854 89.9408C264.601 88.8993 265.261 88.5283 266.123 89.7552C265.663 91.4525 264.658 91.1673 263.854 89.9408Z" fill="#231F20"/>
<path d="M279.799 89.9828C279.797 89.9805 279.796 89.9782 279.794 89.976C279.795 89.9736 279.797 89.9715 279.799 89.9691V89.9828Z" fill="#231F20"/>
<path d="M281.638 85.4467C282.816 83.9058 285.746 84.0484 286.953 85.2611C286.738 86.973 284.798 87.4436 283.261 87.4008L281.638 85.4467Z" fill="#231F20"/>
<path d="M275.978 83.5062C276.624 84.2622 276.854 84.5618 276.725 85.6742C273.665 88.071 270.26 83.064 275.978 83.5062Z" fill="#231F20"/>
<path d="M260.592 81.9799C262.402 81.4805 266.712 83.3923 262.316 86.0316C261.311 85.2613 260.478 84.8043 259.587 83.9056C259.673 83.1782 259.659 82.2511 260.592 81.9799Z" fill="#231F20"/>
<path d="M292.828 78.8978C292.67 76.9863 294.782 76.3444 296.089 78.7406C296.764 79.9674 296.376 79.2122 297.123 79.9965C298.014 80.938 297.741 82.1936 296.765 82.9213C295.572 82.1081 296.204 81.9371 295.485 80.5961C294.365 80.1825 292.943 80.4242 292.828 78.8978Z" fill="#231F20"/>
<path d="M280.848 76.1302C281.509 76.1875 283.261 77.1147 283.879 77.6996C283.534 80.396 278.808 81.7653 278.319 77.8705C278.865 77.1857 279.971 76.0589 280.848 76.1302Z" fill="#231F20"/>
<path d="M289.481 77.4427C289.912 78.1417 289.912 78.8693 289.61 79.7679V79.7543C288.691 80.0395 289.208 79.9534 288.289 79.6254C288.188 78.3557 287.973 77.457 289.481 77.4427Z" fill="#231F20"/>
<path d="M271.409 73.348C272.127 74.2326 273.248 74.9607 273.406 76.2162C273.593 77.614 272.415 78.3412 271.18 78.6693V78.684C268.407 76.5154 268.766 75.3596 271.409 73.348Z" fill="#231F20"/>
<path d="M263.623 74.1761C264.758 74.0478 265.232 74.0331 265.807 74.9603C265.189 76.1872 263.825 76.2869 262.862 75.3168C262.977 74.6039 263.02 74.7748 263.623 74.1761Z" fill="#231F20"/>
<path d="M297.741 71.351C299.953 70.5521 301.505 71.5362 302.496 73.4906V73.5052C301.505 74.4896 301.835 74.3896 300.255 74.3754C297.899 74.3753 296.894 73.7048 297.741 71.351Z" fill="#231F20"/>
<path d="M289.352 69.9095C291.391 69.2105 292.412 70.8661 290.702 72.5638C289.797 72.1644 289.467 72.5636 288.906 71.6791C288.461 70.9658 288.49 70.2092 289.352 69.9095Z" fill="#231F20"/>
<path d="M274.915 69.6527C274.815 68.0838 276.395 68.2122 277.831 68.2836C279.493 68.3833 280.169 68.8805 280.4 70.597C279.454 71.7792 279.022 72.1209 277.688 71.7504C276.323 71.3652 275.016 71.3647 274.915 69.6527Z" fill="#231F20"/>
<path d="M280.402 70.6088C280.402 70.6048 280.401 70.601 280.4 70.597L280.402 70.5951V70.6088Z" fill="#231F20"/>
<path d="M268.206 67.3558C269.226 67.4985 270.074 67.8412 270.447 69.0824C269.628 70.4663 268.364 70.6806 267.186 69.4965C267.071 68.2981 267.402 68.1262 268.206 67.3558Z" fill="#231F20"/>
<path d="M295.371 63.476C296.506 63.7897 296.994 63.6043 297.525 64.9164C297.913 65.8437 298.244 66.6998 298.144 67.7269C296.635 68.8825 296.089 68.3977 294.811 67.1137C293.417 65.7155 294.035 64.5174 295.371 63.476Z" fill="#231F20"/>
<path d="M285.761 63.5326C286.838 61.3787 290.012 62.5911 289.739 64.9164C288.03 66.2573 284.554 65.9436 285.761 63.5326Z" fill="#231F20"/>
<path d="M280.144 62.7904C280.934 62.5051 281.681 61.892 282.327 62.5336C282.93 63.1327 282.773 64.6314 282.299 65.1879C281.624 65.7443 279.885 66.0432 280.144 62.7904Z" fill="#231F20"/>
<path d="M272.688 64.8168C270.361 63.4041 272.975 58.5256 276.006 62.5629C277.256 64.2321 274.483 65.5301 272.688 64.8168Z" fill="#231F20"/>
<path d="M287.743 57.8832C288.792 58.7819 288.992 59.7946 287.743 60.7504C286.594 59.8801 286.594 58.7535 287.743 57.8832Z" fill="#231F20"/>
<path d="M292.312 55.3861C293.418 56.7985 293.963 59.3384 292.225 60.4369C290.587 59.1814 290.674 56.6273 292.312 55.3861Z" fill="#231F20"/>
<path d="M279.641 57.1273C279.253 60.1228 276.509 59.809 276.854 56.9847C277.83 56.2143 277.817 56.6272 278.765 56.1849L279.641 57.1273Z" fill="#231F20"/>
<path d="M296.692 51.1068C297.181 51.4634 297.956 51.8625 298.315 52.2904C299.134 53.289 298.459 52.9041 298.574 54.2875C298.732 56.2562 299.81 56.9843 298.402 58.3822V58.3685L296.851 57.2699L297.525 55.6576C295.342 54.0171 295.127 53.4747 296.692 51.1068Z" fill="#231F20"/>
<path d="M266.956 55.8431C267.243 53.6461 267.287 52.9754 269.901 53.1752C270.763 54.2023 271.481 56.3275 270.505 57.4974C269.384 58.8527 267.732 56.6279 266.956 55.8431Z" fill="#231F20"/>
<path d="M283.218 53.9457C284.324 53.9314 285.099 54.7586 285.774 55.6429C285.171 56.6274 284.841 57.6401 283.605 57.8256C280.89 58.2392 280.23 53.9885 283.218 53.9457Z" fill="#231F20"/>
<path d="M274.34 52.1762C275.475 53.2034 276.509 55.2722 274.225 55.9428C272.918 54.887 272.817 53.0749 274.34 52.1762Z" fill="#231F20"/>
<path d="M287.01 47.8109C288.173 46.9977 289.423 47.9821 289.739 49.1234C290.098 50.3789 290.242 51.7341 289.467 52.8041L289.481 52.8187C286.163 53.1611 285.674 48.7531 287.01 47.8109Z" fill="#231F20"/>
<path d="M274.225 47.5394C275.015 47.7677 275.46 47.7822 275.432 48.7377C275.403 49.4795 275.216 50.022 274.699 50.5355H274.685C272.918 50.5925 272.501 48.5524 274.225 47.5394Z" fill="#231F20"/>
<path d="M293.805 47.8676C294.394 48.7521 294.753 49.423 293.935 50.4359C293.144 50.5215 292.943 50.3361 292.383 49.7797C292.354 48.6384 292.656 48.0531 293.805 47.8676Z" fill="#231F20"/>
<path d="M277.845 48.0248C277.371 44.0016 281.408 46.9407 282.471 48.3246C280.876 50.9638 278.247 51.4059 277.845 48.0248Z" fill="#231F20"/>
<path d="M263.781 45.4857C266.942 46.0136 265.621 46.3985 268.02 45.9135C269.915 45.5283 269.715 45.5278 270.188 45.8558C270.849 46.3124 270.935 47.1256 270.274 47.6107C269.154 48.4524 267.315 47.6538 265.879 48.0531C263.092 48.8377 264.011 49.0662 262.518 46.7982L262.503 46.8119L263.781 45.4857Z" fill="#231F20"/>
<path d="M282.815 43.6166C279.454 43.0744 281.465 39.4934 283.706 40.4633C287.154 41.947 285.502 44.0446 282.815 43.6166Z" fill="#231F20"/>
<path d="M288.82 40.5629C290.171 40.406 290.961 40.9627 291.32 42.2894C290.2 43.7732 289.208 43.5021 287.973 42.5463C288.073 41.6903 288.289 41.2476 288.82 40.5629Z" fill="#231F20"/>
<path d="M269.657 39.9642C270.95 40.3922 270.792 40.7918 270.634 42.1898H270.619L269.844 42.974L268.967 42.2035C268.823 40.9342 268.652 40.7203 269.657 39.9642Z" fill="#231F20"/>
<path d="M272.674 38.3519C274.153 38.2378 274.886 38.3377 275.806 39.7357C276.825 41.3191 275.805 41.8328 274.269 42.2465C273.751 41.8613 272.946 41.1052 272.602 40.6058C271.812 39.5075 271.913 39.2935 272.674 38.3519Z" fill="#231F20"/>
<path d="M280.144 34.6283H280.158C279.627 38.7509 276.395 35.8133 276.596 34.7572C277.113 33.8443 277.788 33.687 278.836 33.4017L280.144 34.6283Z" fill="#231F20"/>
<path d="M267.947 32.2318C268.78 32.2033 269.714 32.6016 270.446 33.1576C270.403 33.9634 270.301 34.5031 269.858 35.1273C268.35 34.9276 266.597 33.9294 267.947 32.2318Z" fill="#231F20"/>
<path d="M271.15 30.2767C272.472 29.6205 272.903 29.9344 274.081 30.0629C275.786 30.2479 276.076 29.8226 276.063 31.6185C275.618 32.7593 273.536 32.8305 272.817 32.7592C271.323 32.6022 270.662 31.7177 271.15 30.2767Z" fill="#231F20"/>
<path d="M320.755 94.349C321.372 94.7769 321.918 95.1767 322.033 96.0326C321.013 96.8172 320.094 96.7458 319.103 96.0326C319.246 95.1195 319.95 94.9197 320.755 94.349Z" fill="#231F20"/>
<path d="M319.017 87.2299C320.869 87.8577 320.266 89.9408 319.203 91.2533C317.982 90.4116 317.81 88.2 319.017 87.2299Z" fill="#231F20"/>
<path d="M150.094 94.7914H150.079C150.082 94.7899 150.085 94.787 150.088 94.7855C150.09 94.7874 150.092 94.7895 150.094 94.7914Z" fill="#231F20"/>
<path d="M149.936 91.7523C152.79 92.1227 152.206 93.7297 150.088 94.7855C149.275 93.9918 149.26 93.9035 148.959 92.7933L149.936 91.7523Z" fill="#231F20"/>
<path d="M179.873 88.0433C180.419 88.5286 181.194 90.2968 180.002 90.4252C178.81 90.5531 179.399 88.6713 179.873 88.0433Z" fill="#231F20"/>
<path d="M170.421 88.3422C171.857 86.9159 174.328 87.5582 172.604 89.7123C171.47 89.5696 170.981 89.455 170.421 88.3422Z" fill="#231F20"/>
<path d="M161.959 84.2054C163.137 84.5335 163.956 85.0183 164.143 86.3734C164.372 88.0282 163.238 88.0427 162.046 88.1996C160.71 86.8872 160.264 85.4751 161.959 84.2054Z" fill="#231F20"/>
<path d="M150.252 88.1566C146.359 88.5275 146.014 82.6789 150.912 85.1039C151.386 86.5161 151.645 87.2865 150.252 88.1566Z" fill="#231F20"/>
<path d="M155.639 86.8871L154.446 87.7435C153.469 86.7734 153.57 85.5887 154.863 85.2035L155.639 86.8871Z" fill="#231F20"/>
<path d="M178.437 82.6078C179.413 83.4493 179.729 83.4492 179.528 84.9613C179.413 85.9171 178.896 86.5166 178.006 86.7592L177.991 86.7445L177.043 86.7162L176.354 85.2465L178.437 82.6078Z" fill="#231F20"/>
<path d="M169.085 85.2465H169.07L168.094 86.3021L167.246 85.5179L167.85 84.4623L169.085 85.2465Z" fill="#231F20"/>
<path d="M169.588 77.3861C172.302 80.5097 168.727 82.0361 167.706 81.8226C166.241 81.523 166.557 80.0674 167.103 79.14C167.706 78.099 168.626 77.8562 169.588 77.3998V77.3861Z" fill="#231F20"/>
<path d="M159.689 77.9281C160.278 76.844 161.341 77.3429 162.16 77.9847H162.146L161.83 79.7826L160.522 80.4105C159.503 79.7971 159.086 79.0977 159.689 77.9281Z" fill="#231F20"/>
<path d="M173.682 79.6537C172.274 77.6708 175.219 76.3303 177.086 77.8138H177.072C177.13 78.299 176.612 79.7248 176.124 80.0961C175.406 80.6525 174.07 80.2101 173.682 79.6537Z" fill="#231F20"/>
<path d="M152.995 76.1586C154.317 77.6851 154.719 78.0281 153.254 79.8685C152.134 80.0112 152.32 79.9966 151.329 79.64C150.553 77.5286 151.243 77.0716 152.995 76.1586Z" fill="#231F20"/>
<path d="M175.435 72.5062C175.965 72.8765 176.066 72.8065 176.409 73.4027C176.309 74.2338 176.178 74.3494 175.463 74.889C174.587 74.2328 174.889 74.3181 174.486 73.4193L175.435 72.5062Z" fill="#231F20"/>
<path d="M179.899 69.597C180.901 69.7374 181.914 69.6586 182.114 71.0511C182.258 72.0356 182.401 73.7766 181.295 74.0619C179.902 74.4183 179.514 73.4338 179.241 72.3783C178.854 70.8098 178.838 70.637 179.899 69.597Z" fill="#231F20"/>
<path d="M176.411 73.4056L176.409 73.4027C176.41 73.3988 176.411 73.3949 176.411 73.391V73.4056Z" fill="#231F20"/>
<path d="M162.318 67.8412C165.105 65.9295 167.433 69.2821 163.439 70.9799C161.529 71.7931 161.701 70.623 160.135 72.2494C159.79 72.5918 159.489 72.8207 159.115 73.0775L159.13 73.0629L157.722 72.3207C158.052 69.7247 159.316 71.5506 161.543 68.5834C162.031 67.9271 161.643 68.3119 162.318 67.8412Z" fill="#231F20"/>
<path d="M170.98 69.3392C171.756 68.4262 172.259 67.3561 173.48 67.9838C175.347 68.9249 173.095 72.4593 170.841 71.8929C169.963 70.7766 170.108 70.362 170.98 69.3392Z" fill="#231F20"/>
<path d="M170.841 71.8929C170.845 71.8976 170.848 71.9029 170.852 71.9076L170.837 71.8929H170.841Z" fill="#231F20"/>
<path d="M179.899 69.597C179.896 69.5965 179.892 69.5966 179.888 69.5961H179.901L179.899 69.597Z" fill="#231F20"/>
<path d="M179.543 64.6166L178.437 65.473L177.503 64.6029L178.451 63.3754L179.543 64.6166Z" fill="#231F20"/>
<path d="M171.081 60.9935C171.641 61.6498 172.303 62.6629 171.915 63.5189C171.455 64.5459 170.32 64.5888 169.443 64.974C168.021 63.0767 169.372 61.8923 171.081 60.9935Z" fill="#231F20"/>
<path d="M154.001 61.4066C154.705 60.6365 155.552 61.1218 156.328 61.2787H156.313C156.471 63.2331 155.653 64.5594 153.729 63.6039C153.484 62.862 153.426 62.0344 154.001 61.4066Z" fill="#231F20"/>
<path d="M182.919 60.2513C184.47 61.5212 184.024 64.2322 182.731 63.847C181.942 63.6044 181.712 62.4628 181.712 61.8637C181.698 61.1075 182.229 60.6651 182.919 60.2513Z" fill="#231F20"/>
<path d="M161.931 56.9125C162.477 57.583 163.095 58.0401 163.583 58.8676C164.428 60.2611 163.688 60.4925 164.238 61.6244C159.961 65.7834 158.785 62.2337 159.244 59.4955C159.661 56.9132 160.552 57.6401 161.931 56.9125Z" fill="#231F20"/>
<path d="M175.448 58.9105C176.483 59.795 177.115 61.0072 176.052 62.3197C174.213 62.9046 173.653 60.2945 175.448 58.9105Z" fill="#231F20"/>
<path d="M164.243 61.6351C164.241 61.6316 164.24 61.6279 164.238 61.6244C164.24 61.623 164.242 61.6219 164.243 61.6205V61.6351Z" fill="#231F20"/>
<path d="M181.295 52.6185C183.277 53.2748 183.263 55.5862 181.482 56.642C179.457 55.6291 180.232 53.9739 181.295 52.6185Z" fill="#231F20"/>
<path d="M168.064 50.85C169.156 52.1055 169.386 54.2455 168.064 55.558V55.5717C166.729 55.4005 166.829 55.5005 165.896 54.559C165.623 52.1195 165.996 51.9341 168.064 50.85Z" fill="#231F20"/>
<path d="M172.202 50.85C172.705 50.479 174.989 49.7228 175.779 52.6332C171.628 58.0687 170.823 51.8345 172.202 50.85Z" fill="#231F20"/>
<path d="M155.409 51.1918C158.268 48.4529 163.296 49.4377 160.667 52.8187H160.652C160.035 52.8901 157.434 53.2467 157.262 53.2181C155.825 53.0041 155.926 52.2475 155.409 51.1918Z" fill="#231F20"/>
<path d="M178.662 43.3578C180.188 45.0439 179.71 49.183 178.221 48.3676C177.66 48.0678 177.029 46.3126 177.015 45.7562C176.986 44.6864 177.733 43.8306 178.522 43.2172L178.662 43.3578Z" fill="#231F20"/>
<path d="M164.962 43.3021C166.585 45.1996 165.68 47.2404 163.31 47.0121C161.945 45.1431 163.339 44.1581 164.962 43.3021Z" fill="#231F20"/>
<path d="M182.919 43.5883C183.809 43.7596 184.126 44.3297 184.398 45.3138C183.91 45.9557 183.623 46.3842 182.919 46.4984C182.014 45.6139 182 44.5013 182.919 43.5883Z" fill="#231F20"/>
<path d="M169.443 41.7904C170.09 42.1471 171.742 42.7177 171.8 43.7592C171.9 45.4996 170.578 45.5001 169.443 45.9994C167.993 44.5586 168.036 43.1742 169.443 41.7904Z" fill="#231F20"/>
<path d="M170.967 38.2523C171.714 38.8655 171.656 38.5521 171.599 39.6791L171.613 39.6928L170.723 39.9926C170.033 39.0224 170.292 38.9229 170.967 38.2523Z" fill="#231F20"/>
<path d="M174.831 35.5267C175.206 35.3415 179.371 34.9015 180.628 36.4467C179.455 37.9065 179.152 37.1826 177.618 37.5385C176.153 37.8809 176.555 38.8801 175.521 39.7504C173.61 39.194 173.136 36.4255 174.831 35.5267Z" fill="#231F20"/>
<path d="M180.635 36.4545C180.633 36.4518 180.63 36.4493 180.628 36.4467C180.63 36.4443 180.633 36.4422 180.635 36.4398V36.4545Z" fill="#231F20"/>
<path d="M181.554 29.5355C183.076 29.5926 185.375 29.2502 186.625 30.1918C186.697 31.0619 186.553 32.0465 185.562 32.3461C184.125 32.7739 184.11 32.0176 183.32 31.2045C181.425 31.1619 181.065 32.6739 179.729 32.2318C178.149 30.3201 179.988 29.4785 181.554 29.5355Z" fill="#231F20"/>
<path fill-rule="evenodd" clip-rule="evenodd" d="M330.479 9.71912C333.956 8.56351 340.435 3.18466 340.263 5.51013C340.061 8.22095 337.475 15.811 336.872 20.4476C336.11 26.2255 330.911 34.0861 328.124 39.3646C326.185 43.0453 322.149 46.284 319.821 49.9789C316.618 55.0721 318.341 60.3371 322.479 55.9574C324.36 53.9743 324.95 51.8765 326.056 49.5082C327.018 47.4541 328.699 46.1417 330.063 44.3158C333.238 40.0644 343.595 25.2696 349.772 27.2806C350.045 28.8071 347.79 32.4737 347.259 34.3285C346.785 35.9549 346.742 36.5402 346.081 38.2094C345.506 39.6646 345.765 41.063 345.478 42.4183C345.262 43.4597 344.486 44.772 344.142 46.1556C343.682 48.0246 343.193 49.9652 342.245 51.6058C341.886 52.2477 341.614 52.2194 341.283 52.9183C340.551 54.4449 340.924 55.6862 340.637 57.0844C340.076 58.3683 336.801 58.2402 333.799 60.4086C332.923 61.0363 328.023 62.1921 326.386 62.934C326.587 64.7026 326.213 64.5174 327.822 65.4447C329.575 66.4577 333.238 69.7385 334.431 71.265C335.149 72.178 336.772 76.8429 338.122 75.3744C338.84 74.5897 337.864 72.7066 339.976 73.0062C340.88 73.1348 341.326 74.4182 341.312 75.2885L339.602 76.473C339.329 78.3988 341.771 79.5831 343.05 80.8812C344.572 82.4219 345.276 83.3923 347.259 84.5336L352.531 87.3871C353.623 87.8148 354.686 87.487 355.533 88.4427C356.352 89.3557 355.979 89.769 357.43 90.3539C358.938 90.9674 361.754 92.0238 362.975 92.9369C364.325 93.9496 366.997 94.2635 367.787 95.9896C368.663 97.8871 367.801 100.398 368.246 102.852C368.591 104.792 370.487 107.061 367.715 108.216C365.244 109.243 364.153 110.085 361.395 109.4C358.32 108.644 350.362 107.388 347.316 107.431C345.65 107.46 345.449 107.888 343.696 107.517C339.013 106.518 335.537 108.002 332.606 107.66C330.236 107.388 328.009 106.847 325.825 107.86C324.805 108.33 321.372 107.217 319.16 107.545C317.666 107.759 313.803 108.202 312.883 109.143C312.107 111.197 313.399 112.496 313.399 114.008C313.399 114.878 313.098 115.221 313.271 116.477C313.428 117.561 313.472 117.918 313.472 119.073C313.443 122.711 313.486 126.349 313.198 129.93C313.069 131.628 312.624 133.668 313.069 135.394C314.161 139.588 315.784 144.71 311.704 147.92C309.219 147.606 308.86 145.509 307.266 143.883C305.743 144.625 306.001 143.241 304.881 145.196C304.134 146.494 303.919 146.223 302.77 146.951C299.322 144.197 300.112 144.682 300.227 140.844C300.313 137.962 300.198 135.28 299.422 132.527C298.962 130.915 299.005 129.36 298.402 127.719C298.101 126.906 297.828 126.392 297.612 125.479C297.368 124.423 297.482 123.838 297.238 122.811C296.736 120.714 295.601 120.856 295.63 118.331C295.659 116.134 295.701 115.306 295.313 113.095C294.84 110.428 295.83 111.412 294.179 108.915C292.44 108.516 277.285 109.671 275.575 110.285C274.225 112.867 275.317 116.805 275.892 119.487C276.337 121.598 275.92 122.355 275.575 124.209C275.216 126.178 276.552 130.814 276.538 133.496C276.524 135.28 276.438 136.835 276.739 138.59C277.285 141.786 278.85 144.025 275.791 146.408C274.182 146.907 271.438 144.197 270.231 143.027C269.642 142.47 269.053 142.413 268.393 142.028C267.229 142.955 267.042 142.942 266.209 144.211C264.155 147.335 261.87 145.181 261.784 140.302C261.741 137.563 261.238 137.192 260.348 134.91C258.322 129.731 258.883 127.847 258.179 123.154C257.863 121.071 256.239 121.427 256.785 117.675C257.705 111.398 253.036 110.784 251.527 109.286C250.407 108.188 249.804 106.361 248.367 105.605C244.388 103.494 240.912 106.034 236.43 104.578C234.706 104.008 225.427 103.893 223.07 103.908C220.513 103.936 219.148 105.235 217.28 104.65C214.925 103.894 213.876 103.851 211.664 104.963C208.662 106.476 204.193 106.49 202.168 109.244C203.36 113.11 203.045 115.706 203.576 119.487C203.806 121.156 204.223 122.825 204.424 124.452C204.625 126.149 204.768 128.018 204.955 129.73C205.429 133.967 204.423 135.994 205.788 140.531C206.434 142.642 206.506 143.255 206.276 145.367C205.989 147.906 205.731 147.749 203.806 148.605L198.577 143.64C196.509 141.4 195.158 147.406 193.305 147.906C191.394 148.419 191.093 145.666 190.834 144.496C190.432 142.727 189.871 141.7 189.713 139.788C189.497 137.22 188.694 132.455 187.875 129.987C187.056 127.519 187.128 129.573 186.539 125.494C186.28 123.696 185.705 122.426 185.403 120.814C184.829 117.689 184.082 114.593 183.335 111.483C183.033 110.184 183.234 107.702 181.74 107.26C180.921 107.018 176.943 107.06 176.21 107.431C175.765 107.659 173.581 109.871 173.265 110.328C171.9 112.339 172.274 112.025 172.763 114.165C174.328 121.127 173.194 128.461 174.443 135.508C174.731 137.134 174.831 138.761 175.463 140.316C175.994 141.586 176.483 143.826 176.454 145.11C176.425 147.193 174.443 147.264 172.849 147.335C171.197 147.421 170.536 145.695 170.406 144.339C170.277 142.856 170.607 140.601 169.027 139.888C166.528 138.775 165.407 141.985 164.718 143.797C164.459 144.496 164.416 145.224 164.028 145.895C162.046 149.404 160.135 146.679 159.072 145.751C158.153 144.953 158.325 145.238 158.081 143.954C157.736 142.171 157.908 140.16 157.908 138.305L156.386 128.447C155.323 124.723 155.452 121.984 154.791 118.403C154.475 116.719 154.016 115.42 153.729 113.637C153.456 111.939 153.512 110.627 151.602 110.313C150.338 111.14 151.07 111.412 149.274 111.526C148.212 111.583 147.278 111.598 146.215 111.769C145.152 111.955 140.11 114.179 138.788 114.764L132.597 118.474C131.62 119.059 131.03 118.859 130.039 119.472C128.847 120.228 129.235 120.101 127.799 120.529C126.377 120.942 124.609 122.155 123.503 123.082C123.07 123.454 119.567 124.722 118.705 125.136C115.645 126.62 116.852 126.021 113.52 126.549C112.37 126.735 111.896 127.106 110.876 127.462C109.928 127.79 109.08 127.776 108.161 128.061C107.27 128.346 106.609 128.846 105.661 129.131C104.785 129.402 103.981 129.516 103.119 129.887C101.094 130.757 99.8723 130.857 97.9189 131.556L97.9326 131.599C95.5625 132.441 94.4707 132.07 92.2012 132.469C90.1614 132.826 88.9258 133.539 86.6562 133.782C79.8614 134.523 76.385 135.151 71.1416 130.244C74.1438 124.423 75.8963 124.123 81.7139 121.784C98.234 115.121 92.201 117.489 105.762 108.245C109.698 105.562 113.893 104.435 117.326 101.011C121.722 96.6314 121.707 95.461 127.611 92.2797C133.185 89.2837 132.654 85.8316 133.774 80.4388C135.024 74.4611 136.303 74.3039 137.567 65.7582C138.329 60.665 139.664 55.7711 141.503 50.9633C147.091 36.3405 146.488 39.0651 157.003 28.6937C160.422 25.3268 163.999 23.3859 168.021 20.932C174.127 17.2084 174.831 17.1655 181.928 16.0385C188.119 15.0541 191.71 13.4989 198.347 13.3705C206.722 13.1993 207.599 12.4439 215.141 11.1742C220.197 10.3183 226.877 11.1595 231.991 11.8158C237.177 12.472 243.972 13.0287 249.129 12.7006C255.263 12.3154 257.303 12.4861 262.991 14.7972C267.488 16.6234 272.702 18.0504 277.429 19.1918C283.635 20.6756 296.29 28.7646 300.514 33.601C303.631 37.1676 306.318 41.7332 308.616 34.7572C311.719 25.3697 309.507 18.6492 323.585 11.8011C326.256 10.5032 327.894 10.5749 330.479 9.71912ZM194.052 109C191.136 107.845 189.268 109.543 190.029 112.724C190.748 115.734 190.719 117.419 191.179 120.201C191.624 122.855 191.107 134.752 194.497 134.01C194.627 133.981 198.963 130.473 199.036 129.759C199.165 128.518 198.275 123.825 197.858 122.426C196.939 119.373 197.298 110.257 194.066 108.987L194.052 109ZM308.645 124.951C310.612 121.241 306.762 104.664 301.39 111.411C300.126 112.995 302.022 114.921 302.41 117.432C302.755 119.658 303.674 132.026 303.933 132.626V132.612C305.901 134.038 307.74 131.87 308.817 130.386C311.101 127.276 307.567 126.962 308.645 124.951ZM270.461 113.751C269.283 111.854 269.24 109.173 266.727 110.014C266.511 110.085 264.773 114.665 264.528 115.478C264.011 117.161 264.413 120.585 264.959 122.269C266.166 126.035 264.198 125.436 265.046 128.218C265.592 130.016 266.54 132.284 268.579 132.184V132.17C271.725 129.345 271.969 123.909 271.409 119.886C271.093 117.646 271.423 115.306 270.461 113.751ZM161.442 107.217C160.063 106.96 158.886 107.232 158.771 108.53C158.742 108.815 160.408 114.18 160.652 114.865C161.227 116.448 161.844 120.428 160.896 121.784C158.885 124.665 159.345 123.867 160.394 127.448L166.93 129.274C168.754 127.105 167.763 121.57 167.433 119.016C167.16 117.033 166.757 108.759 166.47 108.188L163.324 109.714V109.7C162.534 108.43 163.123 107.531 161.442 107.217ZM87.3604 125.194C86.6995 125.322 85.0899 126.463 84.6445 127.091C85.5783 128.047 86.0096 128.261 87.4893 127.776V127.761C88.0061 126.749 87.8916 126.064 87.3604 125.194ZM90.7793 123.966C90.65 125.065 90.4339 126.663 91.1377 127.519H91.1523C92.1004 127.833 92.2154 127.476 92.9766 126.906C93.7954 126.278 96.7264 125.107 93.4941 122.283L90.7793 123.966ZM102.4 118.103C100.059 118.032 98.5795 119.515 96.7266 120.942L97.373 124.609V124.622C98.264 125.193 101.797 125.222 102.473 124.209C103.177 123.125 102.544 119.33 102.4 118.103ZM108.534 113.78C107.903 113.637 108.118 113.523 107.084 114.079C104.556 115.449 105.403 117.047 105.733 118.317C106.193 120.057 106.969 123.524 109.439 122.539C112.657 121.27 113.907 122.026 113.203 117.732C112.456 113.238 109.856 114.065 108.534 113.78ZM119.926 109.529C118.001 109.058 114.855 110.941 113.634 111.996V112.011C113.634 113.694 114.266 113.894 114.984 115.221C116.306 117.661 123.919 118.687 123.402 115.092C123.344 114.734 122.339 113.137 122.066 111.968C121.779 110.727 121.089 109.814 119.926 109.529ZM128.144 101.911C125.385 100.141 119.036 109.928 127.842 112.568C137.437 115.449 129.796 102.968 128.144 101.911ZM135.269 94.0775C131.462 92.8935 131.361 98.7421 132.323 101.039C134.535 106.275 133.114 104.607 138.615 106.447C144.62 108.458 140.483 101.439 140.354 100.64C139.865 97.3874 138.457 95.0761 135.254 94.0775H135.269ZM266.727 22.6869C265.218 21.945 264.241 23.1867 263.451 24.1996C261.727 26.3966 257.044 24.4279 258.639 29.4213L265.548 29.6918C265.964 30.1768 265.793 31.6896 265.821 32.3744C262.345 33.6298 261.741 30.0917 259.515 32.4457C258.136 33.8867 258.797 36.7252 260.492 38.0092C261.542 37.8799 267.56 35.2282 267.416 38.4662C267.287 41.405 262.187 39.7359 260.176 40.4349C259.142 41.6903 260.075 43.0311 258.782 44.6146C257.791 45.813 256.743 46.1558 256.958 48.0531C257.389 51.634 262.158 50.5645 263.12 52.5902C263.752 56.0283 257.95 54.0599 255.335 55.3578C254.114 58.9958 257.331 59.2244 259.673 60.0804C263.164 61.3501 264.255 58.2685 266.855 60.5512C267.933 61.4927 267.718 62.9054 266.583 63.5189C265.247 64.2465 264.284 63.2328 262.977 63.1615C261.153 63.0618 261.885 64.317 259.917 63.1615C258.754 62.4769 257.432 62.2058 256.125 62.7191C253.927 65.0303 257.317 66.3292 258.696 67.6703C256.901 71.2796 256.728 67.9268 254.07 70.2806C252.289 75.3168 259.745 73.2199 261.454 74.7465L261.713 77.1C261.052 77.742 255.923 77.4855 254.717 77.514V77.9994C254.315 81.3662 256.958 82.85 257.087 83.8344C257.302 85.5034 255.536 84.5332 256.47 86.4447C257.03 87.5718 257.274 86.9157 258.94 88.7133L255.952 91.3383C255.823 93.2215 259.099 95.7045 260.779 96.6176C262.69 96.2893 263.006 94.2485 265.089 95.0902C266.611 95.7037 265.908 97.3445 268.177 98.1293L268.622 98.4291L271.251 94.7484C275.747 95.1907 275.015 104.749 280.201 100.27C281.063 97.7163 278.204 96.7885 280.028 94.5345C284.094 93.5359 283.563 104.578 288.347 100.769C289.266 98.044 287.14 96.5032 287.441 95.7328C288.519 93.0506 290.401 96.8313 290.817 97.6302C295.256 106.076 295.543 97.2447 296.405 96.6312C298.1 95.9751 297.699 98.3296 298.259 99.1C300.284 99.9699 301.692 99.0994 303.215 97.5873C303.401 95.6899 300.241 93.8494 302.625 93.0219C304.191 92.4797 306.849 95.233 306.849 91.0814C302.353 89.869 300.37 92.0375 296.707 86.8734C299.25 82.4222 302.094 93.0078 306.763 87.2299C307.481 82.6217 299.393 81.7797 300.643 77.5853C305.024 74.5037 304.22 82.7354 307.409 82.5785C309.506 77.8991 306.375 74.2752 306.116 71.3363C305.728 66.8854 298.517 66.3999 302.97 63.0902L306.145 66.6283C308.386 65.5868 305.786 56.9132 305.183 54.8158C304.565 52.6473 303.387 51.8484 302.252 50.1508C301.333 48.7669 301.117 45.842 300.184 44.7006L296.391 44.4867L295.543 42.0756C296.118 41.6191 297.827 41.3903 298.617 41.2191C299.048 38.6658 295.428 38.6802 293.819 38.0668C289.481 36.4119 289.912 39.6499 287.958 37.9379C287.685 35.456 289.61 36.183 290.73 34.9135C290.199 29.5068 285.559 34.9712 284.338 35.9984L281.034 32.1176L281.02 32.0892L282.83 28.9789C281.02 28.0944 280.359 27.4234 277.127 27.5375C273.952 27.6516 274.699 26.6244 272.717 25.64C270.849 25.9396 269.485 27.9941 267.172 26.3109C266.755 25.2124 268.335 23.4859 266.727 22.6869ZM323.958 73.5336C321.731 70.7087 317.048 65.7443 314.894 71.5365C313.112 76.3443 315.741 75.1603 314.894 77.8138C314.333 79.5829 314.262 83.4774 314.204 85.5033C314.132 88.2425 311.978 98.3287 314.994 99.6556C316.603 100.355 318.543 98.5864 321.99 100.013C325.007 101.254 325.926 100.227 329.029 99.9418C331.343 99.7278 343.739 99.8848 345.463 100.455C348.867 101.583 349.615 100.969 352.919 100.883C354.309 100.855 359.788 101.522 359.871 101.511C360.934 98.6578 356.237 94.5769 353.493 93.7494C348.379 92.1943 348.652 90.0398 344.515 87.7572C341.957 86.345 334.789 86.1025 331.988 87.2152C328.684 88.5277 324.289 91.0528 321.157 88.7133L321.128 88.7279C320.941 86.5452 321.904 84.12 323.312 82.4222C325.366 79.9542 327.707 81.937 329.747 81.8373C332.405 81.7089 330.594 78.1845 328.942 76.9291C327.865 76.1014 324.26 73.9187 323.958 73.5336ZM186.251 22.2445C183.378 22.4444 182.818 24.371 180.85 25.0844C178.896 25.7974 175.592 24.713 173.926 26.3676C172.015 28.265 176.31 28.2369 176.698 30.5765C174.041 33.2158 167.806 25.9975 164.258 31.6185C164.675 34.9278 167.174 33.1307 169.501 34.7855C169.257 35.5843 169.185 36.7679 168.496 37.2816L165.062 36.1547C162.75 38.794 161.542 42.6032 160.178 44.0013C155.796 48.481 154.834 43.8306 151.415 46.7553L151.545 49.851L147.824 52.5043C150.539 56.2564 154.935 54.5734 153.527 58.0687C148.327 58.3969 149.448 57.3126 149.117 62.1918L146.617 62.9047C144.936 67.9408 151.76 64.9167 152.047 69.0541C151.156 72.6489 147.967 69.7954 146.2 70.309C144.046 70.9368 141.876 73.3626 143.571 75.474C144.347 76.1017 148.886 75.8877 147.422 79.14L144.017 79.5404C140.397 83.0638 142.696 83.178 143.945 85.2465C144.362 85.9455 143.902 89.9261 144.965 92.5511C148.8 102.024 156.027 98.101 164.574 99.599C167.821 100.17 169.545 99.8417 172.69 99.8988C174.486 99.9273 174.96 99.257 176.771 99.6136C178.149 99.8991 179.012 100.783 180.089 100.84C181.439 100.911 184.656 98.2584 185.418 97.1312C180.72 96.4607 174.644 96.1176 169.889 96.1176C145.899 96.1745 157.377 89.5267 165.508 93.1361C168.711 94.5484 172.015 92.58 176.009 93.0365C191.724 94.834 181.439 83.0502 184.125 78.4418C185.087 76.7726 186.28 77.1573 186.696 74.5326C187.156 71.5794 185.245 71.4791 185.202 69.8099C185.188 69.1957 188.363 63.0901 188.248 60.5365C188.162 58.739 187.286 56.8986 187.702 55.2152C188.234 53.1038 189.21 52.619 187.831 50.4506H187.86C186.352 48.0681 189.067 43.9876 188.895 42.0472C187.903 40.7632 184.556 40.6627 185.72 37.8236C187.357 36.2119 191.221 38.5371 190.762 32.7455C190.273 26.4396 189.024 28.6789 186.927 26.225C186.985 25.6391 190.905 21.9022 186.251 22.2445ZM251.858 22.3158C246.845 20.0617 248.166 26.8958 248.224 29.4496C248.281 32.4741 246.673 35.7554 246.515 39.0082C246.414 41.0768 246.873 42.3894 246.04 44.3724C245.121 46.541 245.25 46.7698 245.451 49.1381C245.896 54.2593 245.379 54.3736 244.561 59.0385C243.555 64.7594 243.196 74.0473 243.555 79.8539C243.828 84.3051 242.937 97.5586 247.965 98.2865C252.82 98.9855 250.164 93.7499 249.833 90.8109C249.646 89.199 249.79 86.9306 249.33 85.4896C248.755 83.6635 248.051 83.8485 247.836 81.4232H247.821C247.419 76.9008 247.132 75.9021 247.793 71.3656C248.439 66.9429 247.29 64.2318 247.434 61.0931C247.692 55.5006 248.913 46.6264 250.838 41.5189C251.772 39.0647 253.769 23.1723 251.858 22.3158ZM241.414 19.2777C235.238 18.6506 238.211 33.5148 237.723 38.3373C237.392 41.5758 236.588 45.3286 236.2 48.9808C235.913 51.7628 235.41 55.9712 234.95 58.639C234.605 60.6078 234.864 62.5915 234.835 64.5746C234.792 67.0565 233.887 67.5131 233.628 69.4388C233.24 72.2494 233.327 77.5999 233.327 80.5531C233.327 84.9328 234.232 86.8592 234.261 90.6683C234.275 92.0818 233.988 101.011 237.637 96.974C238.829 95.6611 240.236 89.1553 239.992 87.4291C239.848 86.4569 238.384 77.4855 238.384 77.4427C238.729 75.5454 239.863 75.1887 239.389 72.8207C238.943 70.6379 238.341 70.5803 239.217 68.2406C240.653 64.3745 238.958 63.2043 240.279 58.3109C240.839 56.2282 239.892 54.7445 240.322 52.8187C240.796 50.6645 241.759 50.7069 241.313 48.0248C240.48 43.0315 242.822 42.2325 242.061 37.6244C241.586 34.7711 241.4 35.6266 241.859 32.6449C242.161 30.7191 240.998 30.3339 240.61 28.4222C239.533 23.1438 241.845 20.9897 241.414 19.2777ZM220.542 17.2797C216.218 16.2382 215.169 32.8739 215.197 35.2279C215.24 42.4043 212.626 62.9474 214.077 67.7269C214.451 68.9539 213.474 86.6594 214.221 89.7552C214.724 91.8379 215.801 92.209 214.724 94.4203C213.89 96.1322 213.531 97.0594 216.146 97.1879C221.375 97.4447 220.627 93.1218 220.354 89.4838C220.168 86.9442 220.153 80.1247 219.665 78.056H219.651C219.177 76.1016 218.157 76.1157 218.186 73.4193L218.961 62.3627C219.55 59.4953 218.574 60.023 218.157 57.8549C218.028 57.2129 218.602 36.7537 218.688 36.4398C219.436 33.9278 223.141 17.8945 220.542 17.2797ZM201.191 19.5345C198.735 19.4204 195.69 23.229 195.546 25.5687C195.316 29.4064 196.379 32.9161 195.474 36.8822C194.425 41.4332 194.152 52.9038 193.851 58.2396C193.606 62.5339 194.626 65.2451 193.491 69.5394C192.73 72.4366 194.081 86.2739 193.808 91.7806C193.721 93.5212 191.337 100.597 196.552 95.0189C200.645 90.6532 197.815 82.7495 198.06 80.8236C198.333 78.7695 198.778 78.1415 198.49 75.8304C198.289 74.2043 196.982 72.3356 197.212 71.2513C197.643 69.2397 199.195 69.8668 197.988 67.2845C196.911 65.0161 197.6 60.2656 198.203 57.7689C198.72 55.6433 198.06 54.4734 197.729 52.4476L197.743 52.4613C197.327 49.9081 198.088 49.5655 198.462 47.4115C198.792 45.5568 197.802 44.3008 197.988 42.389C198.146 40.7771 198.95 39.3647 199.338 37.8383C199.941 35.4415 198.534 35.2701 198.477 33.4154C198.448 32.2599 199.683 30.6623 200.128 29.35C201.162 26.2685 202.513 22.7017 201.191 19.5345ZM211.908 18.0219C210.917 17.28 208.417 17.5937 207.957 19.434C207.555 21.0746 207.986 22.7445 207.383 24.642C206.334 27.9231 205.128 29.5925 204.625 33.2875C203.39 42.2754 202.915 44.8721 203.461 54.2025C203.921 62.192 202.6 82.7503 203.289 87.2728C203.72 90.1548 201.967 95.6331 204.97 96.432C210.256 97.8441 209.034 92.5655 208.747 89.1273C208.503 86.2598 208.69 81.238 208.948 78.3275H208.963C210.17 64.6173 206.004 67.0994 207.943 58.8392C208.82 55.1299 207.843 51.8053 208.791 48.0531C209.825 43.9874 209.006 41.134 209.394 37.2679C209.71 34.0152 210.313 30.7336 210.658 27.1527C210.831 25.4978 213.747 19.4202 211.908 18.0219ZM233.082 20.975C233.226 18.2929 232.996 17.7219 230.224 18.0072C225.081 18.5495 226.547 31.9464 224.751 35.8412C222.812 40.0356 224.808 52.6046 223.961 58.3256C223.401 62.1204 224.42 65.1022 223.989 69.1967C223.645 72.3781 224.765 77.6427 223.903 78.9838C222.438 81.2521 223.371 81.1807 223.932 83.4633C224.65 86.4022 222.007 96.9879 227.667 96.6312C231.66 96.3885 230.138 90.5392 229.089 88.3422C227.696 85.4034 230.784 81.623 229.405 78.2562C227.394 73.3485 229.333 73.7762 229.074 68.5834C228.442 55.7149 228.356 49.6228 230.583 36.3265C231.172 32.874 232.292 29.7775 232.91 26.7386C233.226 25.1693 232.981 22.744 233.082 20.975ZM341.729 37.225C340.823 36.8683 335.609 43.9163 334.775 45.2289C333.612 47.0409 328.096 52.8321 330.595 54.6156C332.678 56.0993 336.528 49.1234 338.051 47.226C339.229 45.7421 345.449 38.6513 341.714 37.2103L341.729 37.225ZM328.21 17.5228C326.429 16.5814 322.321 20.1477 321.042 21.2748C318.514 23.4861 318.097 25.2836 317.221 28.6078C316.66 30.7334 311.892 45.6696 314.52 45.9564V45.9418C315.927 46.0987 321.186 32.5745 321.502 30.5482C322.206 26.0971 319.577 27.6662 323.8 22.7445C325.279 21.004 330.465 18.7212 328.21 17.5228ZM161.959 34.7279C159.977 34.3 160.609 34.3147 159.086 35.5844C158.626 35.9556 157.305 37.2106 157.018 37.5814L157.032 37.5678C156.328 38.4953 153.814 41.6328 153.383 42.389L154.432 43.5023C157.175 42.9317 158.081 42.9314 159.345 40.1351C160.365 37.8668 162.189 37.6668 161.959 34.7279ZM330.006 24.0853C327.521 24.0853 326.53 25.954 325.812 28.0082C325.251 29.5918 323.455 32.7308 325.193 33.972C325.538 33.701 327.894 29.9642 328.368 29.2787C329.69 27.3384 330.997 26.2253 330.006 24.0853Z" fill="#231F20"/>
</g>
<defs>
<clipPath id="clip0_215_85">
<rect width="438" height="245" fill="white"/>
</clipPath>
</defs>
</svg>
